<svg width="32" height="33" viewBox="0 0 32 33" fill="none" xmlns="http://www.w3.org/2000/svg">
<circle cx="16" cy="16.1772" r="16" fill="#475569"/>
<mask id="mask0_1199_15683" style="mask-type:luminance" maskUnits="userSpaceOnUse" x="0" y="0" width="32" height="33">
<circle cx="16" cy="16.1772" r="16" fill="white"/>
</mask>
<g mask="url(#mask0_1199_15683)">
<path fill-rule="evenodd" clip-rule="evenodd" d="M0 23.5492H31.3867V8.35559H0V23.5492Z" fill="white"/>
<path fill-rule="evenodd" clip-rule="evenodd" d="M0 0.177246H31.3933V17.2663H29.7721C29.2911 17.2663 28.9206 17.4033 28.6592 17.5807V17.2663H26.2686C25.8701 17.2663 25.4307 17.3755 25.1832 17.5807V17.2663H20.8968V17.5807C20.5259 17.3208 19.976 17.2663 19.688 17.2663H16.844V17.5807C16.583 17.3208 15.9786 17.2663 15.6072 17.2663H12.4201L11.6783 18.06L11.0048 17.2663H6.26506V22.4105H10.9224L11.6783 21.6172L12.3651 22.4105H15.2637V21.2064H15.5247C15.9231 21.2064 16.363 21.2064 16.7615 21.0151V22.4105H19.1386V21.0698H19.2617C19.3991 21.0698 19.427 21.0698 19.427 21.2342V22.4105H26.6395C27.079 22.4105 27.5599 22.3012 27.8213 22.096V22.4105H30.1155C30.5824 22.4105 31.0633 22.3285 31.3933 22.178V31.5774H0V16.0899H1.52478L1.8687 15.2549H2.62409L2.94005 16.0899H5.92114V15.4601L6.18213 16.0899H7.73483L7.99582 15.4328V16.0899H15.3737V14.7214H15.4977C15.6072 14.7214 15.6347 14.7487 15.6347 14.9127V16.0899H19.4541V15.775C19.7701 15.9389 20.2374 16.0899 20.8689 16.0899H22.4767L22.8201 15.2549H23.576L23.9189 16.0899H26.9969V15.3096L27.4778 16.0899H29.9505V10.9586H27.5054V11.5606L27.1339 10.9586H24.6338V11.5606L24.3179 10.9586H20.9243C20.3475 10.9586 19.839 11.0271 19.4541 11.2462V10.9586H17.1049V11.2462C16.844 11.0271 16.5005 10.9586 16.1021 10.9586H7.55639L6.96594 12.2585L6.36107 10.9586H3.68194V11.5606L3.36598 10.9586H1.07184L0 13.3941V0.177246ZM2.23966 12.3132L1.62129 13.7637H2.84361L2.23966 12.3132ZM16.1566 13.1755C16.0196 13.2575 15.8957 13.2575 15.7167 13.2575H14.6318V12.4503H15.7167C15.8686 12.4503 16.0466 12.4503 16.1566 12.5049C16.2666 12.5735 16.3216 12.6827 16.3216 12.8467C16.3216 12.9977 16.2666 13.1343 16.1566 13.1755ZM23.191 12.3132L23.7954 13.7637H22.5866L23.191 12.3132ZM9.5206 11.6838H8.07875L6.99295 14.174L5.83909 11.6838H4.42432V15.1451L2.91255 11.6838H1.60775L0.0275022 15.3508H0.975374L1.30533 14.5436H3.16003L3.48949 15.3508H5.28922V12.4776L6.58098 15.3508H7.33641L8.6282 12.4776V15.3508H9.5206V11.6838ZM11.0733 14.5982H13.1345V15.3508H10.1805V11.6838H13.1345V12.4503H11.0733V13.107H13.107V13.8596H11.0733V14.5982ZM16.844 11.8483C16.5551 11.6838 16.2396 11.6838 15.7862 11.6838H13.7664V15.3508H14.6318V14.0235H15.5796C15.8957 14.0235 16.1021 14.0508 16.2396 14.174C16.3713 14.3413 16.3671 14.602 16.3639 14.802C16.3634 14.8312 16.363 14.8592 16.363 14.8853V15.3508H17.2694V14.6255C17.2694 14.3111 17.2419 14.1467 17.1049 13.9688C17.0224 13.8596 16.8715 13.7363 16.679 13.6544C16.9259 13.5446 17.3114 13.2575 17.3114 12.6827C17.3114 12.2585 17.1325 12.0261 16.844 11.8483ZM18.7122 15.3508H17.8198V11.6838H18.7122V15.3508ZM29.1676 15.3508H27.9038L26.2411 12.6008V15.3508H24.4553L24.1114 14.5436H22.2707L21.9272 15.3508H20.8968C20.4709 15.3508 19.9215 15.2549 19.6056 14.9405C19.3166 14.6255 19.1516 14.2013 19.1516 13.5446C19.1656 12.9977 19.2346 12.5049 19.633 12.108C19.894 11.8209 20.3745 11.6838 20.9793 11.6838H21.8172V12.4776H20.9793C20.6634 12.4776 20.4709 12.5323 20.292 12.6827C20.1275 12.8467 20.0585 13.1343 20.0585 13.5173C20.0585 13.9142 20.1275 14.2013 20.292 14.3931C20.4159 14.5162 20.6634 14.5709 20.8968 14.5709H21.2953L22.5596 11.6838H23.8644L25.3482 15.1451V11.6838H26.7085L28.2608 14.2286V11.6838H29.1676V15.3508ZM7.91381 20.9193H10.098L11.1013 19.8384L10.1255 18.7714H7.91381V19.4415H9.86452V20.1801H7.91381V20.9193ZM12.2412 19.8384L13.6014 18.4018V21.3569L12.2412 19.8384ZM14.4668 19.7017H15.6347C15.9511 19.7017 16.1566 19.5234 16.1566 19.209C16.1566 18.8945 15.9511 18.7714 15.6347 18.7714H14.4668V19.7017ZM19.9215 19.5234C19.784 19.5785 19.66 19.5785 19.4956 19.5785L18.4242 19.6059V18.7714H19.4956C19.66 18.7714 19.8115 18.7714 19.9215 18.8395C20.0315 18.8945 20.1 19.0038 20.1 19.1543C20.1 19.3188 20.0315 19.4415 19.9215 19.5234ZM12.8185 18.0049H15.6347C16.3216 18.0049 17.1049 18.21 17.1049 19.209C17.1049 20.2352 16.3355 20.4404 15.5796 20.4404H14.4668V21.6718H12.7636L11.6783 20.4677L10.5514 21.6718H7.04792V18.0049H10.6064L11.6783 19.209L12.8185 18.0049ZM20.6359 18.1827C20.3475 18.0322 20.004 18.0049 19.5501 18.0049H17.5309V21.6718H18.4242V20.3311H19.3721C19.688 20.3311 19.8665 20.3585 20.004 20.4951C20.1549 20.6729 20.1549 20.9874 20.1549 21.2342V21.6718H21.0343V20.96C21.0343 20.6317 21.0068 20.4677 20.8968 20.2899C20.8144 20.1801 20.6634 20.0435 20.4434 19.975C20.6904 19.893 21.0753 19.5785 21.0753 19.0038C21.0753 18.5796 20.9243 18.3471 20.6359 18.1827ZM22.4491 20.9193H24.5238V21.6718H21.5838V18.0049H24.5238V18.7714H22.4491V19.4415H24.4828V20.1801H22.4491V20.9193ZM27.9038 19.729C27.6838 19.5512 27.3679 19.4415 26.8735 19.4415H26.3925C26.2686 19.4415 26.1586 19.4142 26.0491 19.3869C25.9526 19.3461 25.8701 19.2636 25.8701 19.1265C25.8701 19.0038 25.8981 18.9214 26.0076 18.8395C26.0761 18.7848 26.1861 18.7848 26.351 18.7848H27.9723V18.0049H26.2136C25.2657 18.0049 24.9498 18.5796 24.9498 19.0997C24.9498 20.186 25.8489 20.2098 26.6283 20.2305C26.6832 20.232 26.7376 20.2334 26.791 20.2352C26.9555 20.2352 27.0519 20.2626 27.1069 20.3172C27.1615 20.3585 27.2169 20.4677 27.2169 20.577C27.2169 20.6729 27.1615 20.7553 27.1069 20.81C27.024 20.8646 26.928 20.892 26.7635 20.892H25.0598V21.6718H26.7635C27.6564 21.6718 28.1648 21.3022 28.1648 20.5229C28.1648 20.1533 28.0543 19.9204 27.9038 19.729ZM30.2119 21.6718C31.1044 21.6718 31.6133 21.3022 31.6133 20.5229C31.6133 20.1533 31.5033 19.9204 31.3523 19.729C31.1323 19.5512 30.8164 19.4415 30.3215 19.4415H29.841C29.718 19.4415 29.6084 19.4144 29.4984 19.3872L29.4971 19.3869C29.4011 19.3461 29.3187 19.2636 29.3187 19.1265C29.3187 19.0038 29.3736 18.9214 29.4561 18.8395C29.5246 18.7848 29.6346 18.7848 29.7996 18.7848H31.4208V18.0049H29.662C28.7417 18.0049 28.3982 18.5796 28.3982 19.0997C28.3982 20.186 29.2977 20.2098 30.0767 20.2305C30.1317 20.232 30.1861 20.2334 30.2394 20.2352C30.404 20.2352 30.5004 20.2626 30.5554 20.3172C30.6104 20.3585 30.6649 20.4677 30.6649 20.577C30.6649 20.6729 30.6104 20.7553 30.5554 20.81C30.5004 20.8646 30.3765 20.892 30.2119 20.892H28.5082V21.6718H30.2119Z" fill="#475569"/>
</g>
</svg>
