<svg width="32" height="33" viewBox="0 0 32 33" fill="none" xmlns="http://www.w3.org/2000/svg">
<circle cx="16" cy="16.1772" r="16" fill="#475569"/>
<mask id="mask0_1199_15557" style="mask-type:luminance" maskUnits="userSpaceOnUse" x="0" y="0" width="32" height="33">
<circle cx="16" cy="16.1772" r="16" fill="white"/>
</mask>
<g mask="url(#mask0_1199_15557)">
<ellipse cx="16" cy="11.491" rx="16" ry="11.3137" fill="#475569"/>
<rect y="7.17725" width="32" height="19" rx="3.2" fill="#475569"/>
<mask id="mask1_1199_15557" style="mask-type:luminance" maskUnits="userSpaceOnUse" x="0" y="7" width="32" height="20">
<rect y="7.17725" width="32" height="19" rx="3.2" fill="white"/>
</mask>
<g mask="url(#mask1_1199_15557)">
<path fill-rule="evenodd" clip-rule="evenodd" d="M-0.570312 31.2914H32.4765V18.9672C26.5165 16.957 15.9216 13.9451 -0.570312 18.2124V31.2914Z" fill="#475569"/>
<path fill-rule="evenodd" clip-rule="evenodd" d="M32.4765 19.1199C26.5167 17.2246 15.9217 14.3847 -0.570312 18.4083V15.3845C15.8298 11.0847 28.5224 14.5349 32.5121 15.9768L32.4765 19.1199Z" fill="#D8DCDE"/>
<path fill-rule="evenodd" clip-rule="evenodd" d="M10.0664 13.4853C10.8789 11.3751 12.737 9.55302 15.9658 9.5759C19.1946 9.59866 21.3491 11.3273 21.9312 13.5971C17.7688 13.1895 14.9956 13.1188 10.0664 13.4853Z" fill="white"/>
<path fill-rule="evenodd" clip-rule="evenodd" d="M8.99354 20.4336L6.79297 23.599H7.59844L8.22669 22.6402H10.6219L11.2901 23.599H12.1544L9.80962 20.4336H8.99354ZM8.44545 22.299H10.3885L9.7898 21.4226C9.60841 21.1566 9.47234 20.9376 9.38435 20.7659C9.31101 20.9693 9.20826 21.1706 9.07496 21.371L8.44545 22.299ZM18.337 23.599V21.3061H18.969V21.6533C19.1305 21.4912 19.2799 21.3835 19.4173 21.332C19.5532 21.2803 19.7039 21.2538 19.868 21.2538C20.1054 21.2538 20.3454 21.2959 20.5908 21.379L20.3481 21.7402C20.1774 21.6835 20.0054 21.6555 19.8333 21.6555C19.6786 21.6555 19.5412 21.6813 19.4185 21.7321C19.2958 21.7837 19.2091 21.8546 19.1572 21.9451C19.0785 22.083 19.0397 22.2341 19.0397 22.3985V23.599H18.337ZM23.5768 23.5754C23.8169 23.5246 24.0676 23.4384 24.329 23.3161C24.349 23.4245 24.3969 23.5188 24.4689 23.599H25.2039C25.1158 23.5114 25.0559 23.4192 25.0264 23.3234C24.9958 23.2283 24.9811 22.9999 24.9811 22.638V22.1199C24.9811 21.9474 24.9691 21.828 24.9464 21.7617C24.9039 21.6548 24.8318 21.5671 24.7278 21.497C24.6224 21.4269 24.4598 21.3695 24.2383 21.3231C24.017 21.2774 23.7302 21.2538 23.3754 21.2538C23.018 21.2538 22.7047 21.281 22.4338 21.3349C22.1632 21.3888 21.9551 21.4661 21.8124 21.5663C21.6696 21.6657 21.567 21.7978 21.5044 21.9599L22.1911 22.0123C22.2672 21.8493 22.3832 21.7358 22.5406 21.6717C22.6994 21.6076 22.9433 21.5759 23.274 21.5759C23.6274 21.5759 23.8955 21.6194 24.0742 21.7078C24.2077 21.7719 24.2742 21.8839 24.2742 22.0424C24.2742 22.0564 24.273 22.0903 24.2703 22.1433C24.0022 22.1957 23.5835 22.24 23.0153 22.2777C22.7366 22.2959 22.5286 22.3158 22.3911 22.3358C22.2031 22.3645 22.035 22.4072 21.8844 22.4633C21.735 22.5193 21.6137 22.5937 21.5218 22.6866C21.4282 22.7794 21.3829 22.8819 21.3829 22.9947C21.3829 23.1857 21.5056 23.3433 21.7496 23.4664C21.9952 23.5895 22.3444 23.6507 22.8005 23.6507C23.0767 23.6507 23.3355 23.6256 23.5768 23.5754ZM23.122 22.5952C23.6315 22.5546 24.0142 22.5061 24.2703 22.4478V22.5908C24.2703 22.7618 24.233 22.8915 24.157 22.9792C24.0581 23.0928 23.9022 23.1826 23.6916 23.2482C23.4808 23.3138 23.2394 23.3463 22.9685 23.3463C22.6952 23.3463 22.4872 23.3116 22.3458 23.2431C22.2046 23.1739 22.1325 23.0876 22.1325 22.9837C22.1325 22.9158 22.1657 22.8546 22.2312 22.7994C22.2952 22.7433 22.3885 22.7014 22.5085 22.6726C22.6272 22.6438 22.8326 22.618 23.122 22.5952ZM16.0019 23.2622V23.599H16.63V21.3061H15.9271V22.5347C15.9271 22.7302 15.8885 22.8797 15.8111 22.983C15.735 23.0854 15.6045 23.1672 15.4191 23.2269C15.2337 23.2865 15.0362 23.3161 14.8256 23.3161C14.6148 23.3161 14.4375 23.2873 14.2933 23.2291C14.1507 23.1701 14.0574 23.0905 14.012 22.9881C13.9839 22.9174 13.9693 22.781 13.9693 22.5775V21.3061H13.2666V22.7264C13.2666 22.8923 13.2812 23.0132 13.3091 23.0897C13.3505 23.2032 13.4225 23.299 13.5265 23.3779C13.6292 23.4561 13.7866 23.5216 13.9987 23.5733C14.2108 23.6249 14.4401 23.6507 14.6841 23.6507C15.239 23.6507 15.6778 23.5216 16.0019 23.2622Z" fill="white"/>
<path d="M24.2703 22.4478H24.5203V22.1346L24.2149 22.2041L24.2703 22.4478ZM23.122 22.5952L23.1416 22.8444L23.1419 22.8444L23.122 22.5952ZM22.5085 22.6726L22.5668 22.9157L22.5674 22.9156L22.5085 22.6726ZM22.2312 22.7994L22.3924 22.9906L22.396 22.9874L22.2312 22.7994ZM22.3458 23.2431L22.2358 23.4676L22.2368 23.4681L22.3458 23.2431ZM23.6916 23.2482L23.7658 23.4869L23.7659 23.4869L23.6916 23.2482ZM24.157 22.9792L24.3456 23.1433L24.3459 23.143L24.157 22.9792ZM24.329 23.3161L24.5749 23.2709L24.5163 22.9525L24.2231 23.0897L24.329 23.3161ZM23.5768 23.5754L23.6277 23.8201L23.6286 23.82L23.5768 23.5754ZM21.7496 23.4664L21.637 23.6896L21.6376 23.6899L21.7496 23.4664ZM21.5218 22.6866L21.6978 22.8641L21.6995 22.8625L21.5218 22.6866ZM21.8844 22.4633L21.7972 22.229L21.7968 22.2292L21.8844 22.4633ZM22.3911 22.3358L22.3552 22.0884L22.3535 22.0887L22.3911 22.3358ZM23.0153 22.2777L23.0317 22.5271L23.0319 22.5271L23.0153 22.2777ZM24.2703 22.1433L24.3183 22.3887L24.5103 22.3512L24.52 22.1558L24.2703 22.1433ZM24.0742 21.7078L23.9633 21.9319L23.966 21.9332L24.0742 21.7078ZM22.5406 21.6717L22.447 21.4399L22.4463 21.4402L22.5406 21.6717ZM22.1911 22.0123L22.172 22.2616L22.3444 22.2747L22.4176 22.1181L22.1911 22.0123ZM21.5044 21.9599L21.2712 21.8698L21.15 22.1836L21.4853 22.2092L21.5044 21.9599ZM21.8124 21.5663L21.9553 21.7714L21.956 21.7709L21.8124 21.5663ZM22.4338 21.3349L22.385 21.0897L22.385 21.0897L22.4338 21.3349ZM24.2383 21.3231L24.2896 21.0784L24.2888 21.0783L24.2383 21.3231ZM24.7278 21.497L24.8675 21.2897L24.8662 21.2889L24.7278 21.497ZM24.9464 21.7617L25.1832 21.6805L25.1787 21.6692L24.9464 21.7617ZM25.0264 23.3234L25.2655 23.2501L25.2644 23.2467L25.0264 23.3234ZM25.2039 23.599V23.849H25.8097L25.3802 23.4218L25.2039 23.599ZM24.4689 23.599L24.2828 23.766L24.3573 23.849H24.4689V23.599ZM18.337 23.599H18.087V23.849H18.337V23.599ZM18.337 21.3061V21.0561H18.087V21.3061H18.337ZM18.969 21.3061H19.219V21.0561H18.969V21.3061ZM18.969 21.6533H18.719V22.2586L19.1462 21.8297L18.969 21.6533ZM19.4173 21.332L19.5051 21.566L19.5061 21.5657L19.4173 21.332ZM20.5908 21.379L20.7983 21.5185L20.9807 21.2472L20.6711 21.1423L20.5908 21.379ZM20.3481 21.7402L20.2693 21.9775L20.4496 22.0374L20.5556 21.8797L20.3481 21.7402ZM19.4185 21.7321L19.323 21.501L19.3215 21.5017L19.4185 21.7321ZM19.1572 21.9451L18.9403 21.8209L18.9402 21.8211L19.1572 21.9451ZM19.0397 23.599V23.849H19.2897V23.599H19.0397ZM16.0019 23.599H15.7519V23.849H16.0019V23.599ZM16.0019 23.2622H16.2519V22.7419L15.8456 23.0671L16.0019 23.2622ZM13.9987 23.5733L13.9395 23.8162L13.9396 23.8162L13.9987 23.5733ZM13.5265 23.3779L13.6778 23.1789L13.6775 23.1787L13.5265 23.3779ZM13.3091 23.0897L13.0742 23.1753L13.0743 23.1754L13.3091 23.0897ZM13.2666 21.3061V21.0561H13.0166V21.3061H13.2666ZM13.9693 21.3061H14.2193V21.0561H13.9693V21.3061ZM14.012 22.9881L13.7794 23.0803L13.7835 23.0895L14.012 22.9881ZM14.2933 23.2291L14.1978 23.4601L14.1996 23.4609L14.2933 23.2291ZM15.4191 23.2269L15.4956 23.4649L15.4957 23.4648L15.4191 23.2269ZM15.8111 22.983L15.6111 22.833L15.6105 22.8338L15.8111 22.983ZM15.9271 21.3061V21.0561H15.6771V21.3061H15.9271ZM16.63 21.3061H16.88V21.0561H16.63V21.3061ZM16.63 23.599V23.849H16.88V23.599H16.63ZM8.44545 22.299L8.23856 22.1587L7.97377 22.549H8.44545V22.299ZM10.3885 22.299V22.549H10.8621L10.5949 22.158L10.3885 22.299ZM9.7898 21.4226L9.58326 21.5634L9.58337 21.5636L9.7898 21.4226ZM9.38435 20.7659L9.60686 20.6519L9.34439 20.1395L9.14917 20.6811L9.38435 20.7659ZM9.07496 21.371L9.28186 21.5113L9.28312 21.5094L9.07496 21.371ZM6.79297 23.599L6.5877 23.4563L6.3147 23.849H6.79297V23.599ZM8.99354 20.4336V20.1836H8.86286L8.78827 20.2909L8.99354 20.4336ZM9.80962 20.4336L10.0105 20.2848L9.93556 20.1836H9.80962V20.4336ZM12.1544 23.599V23.849H12.6506L12.3552 23.4502L12.1544 23.599ZM11.2901 23.599L11.0849 23.742L11.1595 23.849H11.2901V23.599ZM10.6219 22.6402L10.827 22.4973L10.7524 22.3902H10.6219V22.6402ZM8.22669 22.6402V22.3902H8.09161L8.01758 22.5032L8.22669 22.6402ZM7.59844 23.599V23.849H7.73353L7.80756 23.7361L7.59844 23.599ZM24.2149 22.2041C23.9771 22.2582 23.6091 22.3056 23.1022 22.346L23.1419 22.8444C23.6538 22.8036 24.0513 22.754 24.3258 22.6916L24.2149 22.2041ZM23.1024 22.346C22.8129 22.3688 22.5897 22.3957 22.4496 22.4297L22.5674 22.9156C22.6647 22.892 22.8523 22.8672 23.1416 22.8444L23.1024 22.346ZM22.4503 22.4295C22.3092 22.4633 22.1726 22.5184 22.0665 22.6114L22.396 22.9874C22.4178 22.9683 22.4677 22.9395 22.5668 22.9157L22.4503 22.4295ZM22.0701 22.6082C21.9655 22.6964 21.8825 22.8222 21.8825 22.9837H22.3825C22.3825 22.9873 22.382 22.9916 22.3809 22.9961C22.3798 23.0004 22.3784 23.0035 22.3775 23.0051C22.3759 23.008 22.378 23.0026 22.3923 22.9905L22.0701 22.6082ZM21.8825 22.9837C21.8825 23.2294 22.0605 23.3816 22.2358 23.4676L22.4559 23.0186C22.4048 22.9936 22.3846 22.9741 22.379 22.9672C22.3768 22.9646 22.3781 22.9655 22.3799 22.9701C22.3817 22.975 22.3825 22.98 22.3825 22.9837H21.8825ZM22.2368 23.4681C22.4284 23.5609 22.6811 23.5963 22.9685 23.5963V23.0963C22.7094 23.0963 22.546 23.0623 22.4548 23.0181L22.2368 23.4681ZM22.9685 23.5963C23.2589 23.5963 23.5261 23.5615 23.7658 23.4869L23.6173 23.0095C23.4355 23.0661 23.2199 23.0963 22.9685 23.0963V23.5963ZM23.7659 23.4869C24.0011 23.4137 24.2051 23.3048 24.3456 23.1433L23.9684 22.8151C23.9112 22.8808 23.8034 22.9516 23.6173 23.0095L23.7659 23.4869ZM24.3459 23.143C24.4768 22.9919 24.5203 22.7931 24.5203 22.5908H24.0203C24.0203 22.7306 23.9891 22.7911 23.9681 22.8154L24.3459 23.143ZM24.5203 22.5908V22.4478H24.0203V22.5908H24.5203ZM24.2231 23.0897C23.9762 23.2051 23.7437 23.2845 23.525 23.3308L23.6286 23.82C23.8901 23.7646 24.159 23.6716 24.4349 23.5426L24.2231 23.0897ZM23.5259 23.3306C23.3032 23.377 23.0616 23.4007 22.8005 23.4007V23.9007C23.0918 23.9007 23.3678 23.8742 23.6277 23.8201L23.5259 23.3306ZM22.8005 23.4007C22.3607 23.4007 22.0567 23.3407 21.8617 23.2429L21.6376 23.6899C21.9336 23.8384 22.3282 23.9007 22.8005 23.9007V23.4007ZM21.8623 23.2432C21.661 23.1417 21.6329 23.0525 21.6329 22.9947H21.1329C21.1329 23.3189 21.3502 23.5449 21.637 23.6896L21.8623 23.2432ZM21.6329 22.9947C21.6329 22.958 21.6445 22.917 21.6978 22.8641L21.3457 22.5091C21.212 22.6418 21.1329 22.8058 21.1329 22.9947H21.6329ZM21.6995 22.8625C21.7607 22.8006 21.8488 22.7436 21.9721 22.6974L21.7968 22.2292C21.6211 22.2949 21.4666 22.3869 21.3441 22.5108L21.6995 22.8625ZM21.9717 22.6976C22.1042 22.6482 22.2554 22.6094 22.4288 22.583L22.3535 22.0887C22.1507 22.1195 21.9658 22.1662 21.7972 22.229L21.9717 22.6976ZM22.4271 22.5832C22.5548 22.5646 22.7552 22.5453 23.0317 22.5271L22.999 22.0282C22.7181 22.0466 22.5024 22.067 22.3552 22.0884L22.4271 22.5832ZM23.0319 22.5271C23.6014 22.4894 24.0336 22.4444 24.3183 22.3887L24.2224 21.898C23.9709 21.9471 23.5656 21.9906 22.9988 22.0282L23.0319 22.5271ZM24.52 22.1558C24.5226 22.1043 24.5242 22.0639 24.5242 22.0424H24.0242C24.0242 22.0424 24.0242 22.043 24.0242 22.0444C24.0242 22.0458 24.0242 22.0476 24.0241 22.0499C24.024 22.0547 24.0238 22.0609 24.0235 22.0687C24.0229 22.0842 24.0219 22.1049 24.0206 22.1309L24.52 22.1558ZM24.5242 22.0424C24.5242 21.928 24.5 21.8139 24.4389 21.7116C24.3772 21.6081 24.2873 21.5328 24.1824 21.4824L23.966 21.9332C23.9946 21.9469 24.0047 21.9597 24.0096 21.9679C24.0152 21.9772 24.0242 21.9983 24.0242 22.0424H24.5242ZM24.185 21.4837C23.9544 21.3696 23.6397 21.3259 23.274 21.3259V21.8259C23.6152 21.8259 23.8367 21.8692 23.9633 21.9319L24.185 21.4837ZM23.274 21.3259C22.9356 21.3259 22.652 21.3571 22.447 21.4399L22.6342 21.9035C22.7468 21.8581 22.9509 21.8259 23.274 21.8259V21.3259ZM22.4463 21.4402C22.2264 21.5297 22.0654 21.6906 21.9645 21.9065L22.4176 22.1181C22.469 22.008 22.5399 21.9419 22.6349 21.9032L22.4463 21.4402ZM22.2101 21.763L21.5234 21.7106L21.4853 22.2092L22.172 22.2616L22.2101 21.763ZM21.7376 22.0499C21.7825 21.9336 21.854 21.8419 21.9553 21.7714L21.6695 21.3611C21.4852 21.4895 21.3514 21.6619 21.2712 21.8698L21.7376 22.0499ZM21.956 21.7709C22.0585 21.699 22.2282 21.6307 22.4826 21.5801L22.385 21.0897C22.0981 21.1468 21.8518 21.2332 21.6687 21.3616L21.956 21.7709ZM22.4826 21.5801C22.7337 21.5302 23.0301 21.5038 23.3754 21.5038V21.0038C23.0059 21.0038 22.6757 21.0319 22.385 21.0897L22.4826 21.5801ZM23.3754 21.5038C23.7211 21.5038 23.9893 21.5269 24.1877 21.5679L24.2888 21.0783C24.0446 21.0278 23.7393 21.0038 23.3754 21.0038V21.5038ZM24.187 21.5678C24.3986 21.6121 24.5239 21.6617 24.5894 21.7052L24.8662 21.2889C24.7209 21.1922 24.521 21.1269 24.2896 21.0784L24.187 21.5678ZM24.5881 21.7044C24.6538 21.7486 24.6917 21.7976 24.7141 21.8541L25.1787 21.6692C25.1161 21.5119 25.0098 21.3856 24.8675 21.2897L24.5881 21.7044ZM24.7099 21.8427C24.7122 21.8492 24.7184 21.8737 24.7235 21.9253C24.7283 21.9744 24.7311 22.0388 24.7311 22.1199H25.2311C25.2311 21.9473 25.2205 21.7902 25.1829 21.6806L24.7099 21.8427ZM24.7311 22.1199V22.638H25.2311V22.1199H24.7311ZM24.7311 22.638C24.7311 22.8216 24.7348 22.9752 24.7428 23.0971C24.7504 23.2122 24.7628 23.3205 24.7885 23.4002L25.2644 23.2467C25.2594 23.2313 25.2492 23.1778 25.2418 23.0644C25.2348 22.9579 25.2311 22.8163 25.2311 22.638H24.7311ZM24.7875 23.3968C24.8318 23.5412 24.9182 23.6675 25.0276 23.7763L25.3802 23.4218C25.3134 23.3553 25.2799 23.2973 25.2654 23.2501L24.7875 23.3968ZM25.2039 23.349H24.4689V23.849H25.2039V23.349ZM24.655 23.4321C24.6125 23.3848 24.5862 23.3321 24.5749 23.2709L24.0832 23.3614C24.1118 23.5168 24.1813 23.6529 24.2828 23.766L24.655 23.4321ZM18.587 23.599V21.3061H18.087V23.599H18.587ZM18.337 21.5561H18.969V21.0561H18.337V21.5561ZM18.719 21.3061V21.6533H19.219V21.3061H18.719ZM19.1462 21.8297C19.2955 21.6798 19.4153 21.5998 19.5051 21.566L19.3294 21.0979C19.1446 21.1673 18.9654 21.3026 18.7919 21.4769L19.1462 21.8297ZM19.5061 21.5657C19.6108 21.5259 19.731 21.5038 19.868 21.5038V21.0038C19.6769 21.0038 19.4957 21.0347 19.3284 21.0983L19.5061 21.5657ZM19.868 21.5038C20.0752 21.5038 20.2882 21.5405 20.5106 21.6158L20.6711 21.1423C20.4027 21.0513 20.1355 21.0038 19.868 21.0038V21.5038ZM20.3833 21.2396L20.1406 21.6008L20.5556 21.8797L20.7983 21.5185L20.3833 21.2396ZM20.4269 21.503C20.2316 21.4381 20.033 21.4055 19.8333 21.4055V21.9055C19.9778 21.9055 20.1233 21.929 20.2693 21.9775L20.4269 21.503ZM19.8333 21.4055C19.6502 21.4055 19.4798 21.4362 19.323 21.501L19.514 21.9631C19.6026 21.9265 19.7069 21.9055 19.8333 21.9055V21.4055ZM19.3215 21.5017C19.1621 21.5688 19.0261 21.6711 18.9403 21.8209L19.3742 22.0694C19.3922 22.038 19.4295 21.9987 19.5156 21.9624L19.3215 21.5017ZM18.9402 21.8211C18.8387 21.9987 18.7897 22.1929 18.7897 22.3985H19.2897C19.2897 22.2754 19.3182 22.1673 19.3743 22.0691L18.9402 21.8211ZM18.7897 22.3985V23.599H19.2897V22.3985H18.7897ZM19.0397 23.349H18.337V23.849H19.0397V23.349ZM16.2519 23.599V23.2622H15.7519V23.599H16.2519ZM15.8456 23.0671C15.579 23.2805 15.2016 23.4007 14.6841 23.4007V23.9007C15.2765 23.9007 15.7767 23.7627 16.1581 23.4574L15.8456 23.0671ZM14.6841 23.4007C14.4577 23.4007 14.2483 23.3767 14.0578 23.3304L13.9396 23.8162C14.1732 23.873 14.4226 23.9007 14.6841 23.9007V23.4007ZM14.0579 23.3304C13.86 23.2822 13.7409 23.2269 13.6778 23.1789L13.3752 23.5769C13.5175 23.6852 13.7132 23.7611 13.9395 23.8162L14.0579 23.3304ZM13.6775 23.1787C13.609 23.1268 13.5678 23.0693 13.544 23.0041L13.0743 23.1754C13.1333 23.3372 13.2359 23.4713 13.3754 23.5771L13.6775 23.1787ZM13.544 23.0042C13.5317 22.9703 13.5166 22.8856 13.5166 22.7264H13.0166C13.0166 22.899 13.0308 23.0561 13.0742 23.1753L13.544 23.0042ZM13.5166 22.7264V21.3061H13.0166V22.7264H13.5166ZM13.2666 21.5561H13.9693V21.0561H13.2666V21.5561ZM13.7193 21.3061V22.5775H14.2193V21.3061H13.7193ZM13.7193 22.5775C13.7193 22.7776 13.7317 22.9595 13.7796 23.0802L14.2444 22.896C14.2445 22.8963 14.2438 22.8946 14.2426 22.8904C14.2415 22.8863 14.24 22.8804 14.2384 22.8725C14.2351 22.8565 14.2317 22.8348 14.2288 22.8065C14.2228 22.7497 14.2193 22.6741 14.2193 22.5775H13.7193ZM13.7835 23.0895C13.8636 23.2701 14.0191 23.3862 14.1978 23.4601L14.3889 22.9981C14.2823 22.954 14.2512 22.9109 14.2405 22.8867L13.7835 23.0895ZM14.1996 23.4609C14.3824 23.5347 14.5938 23.5661 14.8256 23.5661V23.0661C14.6359 23.0661 14.4926 23.04 14.387 22.9973L14.1996 23.4609ZM14.8256 23.5661C15.06 23.5661 15.2835 23.5331 15.4956 23.4649L15.3425 22.9889C15.184 23.0399 15.0124 23.0661 14.8256 23.0661V23.5661ZM15.4957 23.4648C15.7072 23.3967 15.8925 23.2925 16.0118 23.1321L15.6105 22.8338C15.5775 22.8782 15.5018 22.9376 15.3424 22.9889L15.4957 23.4648ZM16.0112 23.1329C16.1339 22.9691 16.1771 22.7577 16.1771 22.5347H15.6771C15.6771 22.7026 15.6431 22.7903 15.6111 22.833L16.0112 23.1329ZM16.1771 22.5347V21.3061H15.6771V22.5347H16.1771ZM15.9271 21.5561H16.63V21.0561H15.9271V21.5561ZM16.38 21.3061V23.599H16.88V21.3061H16.38ZM16.63 23.349H16.0019V23.849H16.63V23.349ZM8.44545 22.549H10.3885V22.049H8.44545V22.549ZM10.5949 22.158L9.99624 21.2815L9.58337 21.5636L10.1821 22.44L10.5949 22.158ZM9.99635 21.2817C9.81698 21.0187 9.68775 20.8098 9.60686 20.6519L9.16185 20.8799C9.25692 21.0655 9.39985 21.2945 9.58326 21.5634L9.99635 21.2817ZM9.14917 20.6811C9.08332 20.8638 8.99012 21.0471 8.86681 21.2325L9.28312 21.5094C9.4264 21.294 9.53871 21.0749 9.61954 20.8507L9.14917 20.6811ZM8.86807 21.2306L8.23856 22.1587L8.65234 22.4393L9.28185 21.5113L8.86807 21.2306ZM6.99824 23.7417L9.19881 20.5763L8.78827 20.2909L6.5877 23.4563L6.99824 23.7417ZM8.99354 20.6836H9.80962V20.1836H8.99354V20.6836ZM9.60873 20.5824L11.9535 23.7478L12.3552 23.4502L10.0105 20.2848L9.60873 20.5824ZM12.1544 23.349H11.2901V23.849H12.1544V23.349ZM11.4952 23.4561L10.827 22.4973L10.4168 22.7831L11.0849 23.742L11.4952 23.4561ZM10.6219 22.3902H8.22669V22.8902H10.6219V22.3902ZM8.01758 22.5032L7.38933 23.462L7.80756 23.7361L8.43581 22.7772L8.01758 22.5032ZM7.59844 23.349H6.79297V23.849H7.59844V23.349Z" fill="white"/>
</g>
</g>
</svg>
