<svg width="32" height="33" viewBox="0 0 32 33" fill="none" xmlns="http://www.w3.org/2000/svg">
<circle cx="16" cy="16.1772" r="16" fill="#475569"/>
<path fill-rule="evenodd" clip-rule="evenodd" d="M17.8157 25.9985V18.2012H15.9583V25.9985H14.9715V20.6749H14.043V25.9985H17.8157Z" fill="white"/>
<path fill-rule="evenodd" clip-rule="evenodd" d="M6.49219 13.7379C7.56747 13.29 8.64289 12.8418 9.71864 12.3935C14.0372 6.77532 19.6473 8.90235 21.6448 11.5869C16.9971 8.80865 13.5593 10.2248 11.8504 12.1247C24.9101 10.8605 28.1749 18.2815 21.1262 20.9975C27.3676 16.3191 19.436 12.501 11.1591 12.8774C9.17083 16.3009 9.8235 18.8284 11.6775 21.105C9.67844 19.6767 8.35264 17.5891 9.43058 13.1463C8.45105 13.3437 7.47152 13.5408 6.49219 13.7379Z" fill="white"/>
</svg>
