<svg width="32" height="33" viewBox="0 0 32 33" fill="none" xmlns="http://www.w3.org/2000/svg">
<circle cx="16" cy="16.1772" r="16" fill="#475569"/>
<mask id="mask0_1199_15581" style="mask-type:luminance" maskUnits="userSpaceOnUse" x="10" y="7" width="13" height="10">
<path fill-rule="evenodd" clip-rule="evenodd" d="M10.5625 7.26843H22.0048V16.215H10.5625V7.26843Z" fill="white"/>
</mask>
<g mask="url(#mask0_1199_15581)">
<path fill-rule="evenodd" clip-rule="evenodd" d="M17.2657 16.215C19.7433 16.2268 22.0048 14.221 22.0048 11.7806C22.0048 9.11216 19.7433 7.2677 17.2657 7.26843H15.1334C12.6263 7.2677 10.5625 9.11253 10.5625 11.7806C10.5625 14.2215 12.6263 16.2268 15.1334 16.215H17.2657Z" fill="#FEFEFE"/>
</g>
<path fill-rule="evenodd" clip-rule="evenodd" d="M15.1442 7.63831C12.8531 7.63903 10.9966 9.47192 10.9961 11.7339C10.9966 13.9955 12.8531 15.828 15.1442 15.8286C17.4359 15.828 19.2928 13.9955 19.2931 11.7339C19.2928 9.47192 17.4359 7.63903 15.1442 7.63831ZM12.5149 11.7339C12.517 10.6285 13.2165 9.686 14.2027 9.31125V14.1558C13.2165 13.7814 12.517 12.8394 12.5149 11.7339ZM16.0853 9.31116V14.1568C17.0721 13.7825 17.7725 12.84 17.7743 11.7339C17.7725 10.6278 17.0721 9.68472 16.0853 9.31116Z" fill="#475569"/>
<path fill-rule="evenodd" clip-rule="evenodd" d="M5.05876 16.6483C5.26001 16.6505 5.45593 16.6526 5.45593 17.0495V19.3437C5.44235 19.6611 5.30651 19.6745 5.02693 19.7021C5.02319 19.7025 5.01942 19.7029 5.01562 19.7033V19.8263C5.23102 19.8215 5.44217 19.8168 5.65757 19.8168C5.76788 19.8168 5.87825 19.8191 5.99087 19.8214C6.10814 19.8238 6.22784 19.8263 6.35241 19.8263C8.04872 19.8263 8.32662 18.6487 8.32662 18.1801C8.32662 17.3426 7.65098 16.5248 6.41012 16.5248C6.20772 16.5248 6.0319 16.5277 5.88086 16.5302C5.76713 16.5321 5.66745 16.5338 5.58103 16.5338C5.39388 16.5338 5.2024 16.5338 5.01562 16.5248V16.6477C5.02998 16.648 5.04438 16.6482 5.05876 16.6483ZM6.42406 19.6748C6.18946 19.6748 5.92559 19.6323 5.92559 19.2681V16.6952C5.94906 16.6938 5.97281 16.6918 5.99887 16.6897C6.06907 16.6837 6.15605 16.6764 6.2996 16.6764C7.22425 16.6764 7.79925 17.3147 7.79925 18.199C7.79925 18.9039 7.4594 19.6748 6.42406 19.6748Z" fill="white"/>
<path fill-rule="evenodd" clip-rule="evenodd" d="M8.774 16.6999C8.774 16.8228 8.88405 16.9364 9.00887 16.9364C9.13794 16.9364 9.24357 16.8277 9.24357 16.6999C9.24357 16.572 9.13305 16.4724 9.00887 16.4724C8.88922 16.4724 8.774 16.5814 8.774 16.6999ZM8.58713 19.7033H8.49609V19.8263C8.67327 19.8215 8.84582 19.8168 9.01847 19.8168C9.10563 19.8168 9.19171 19.8193 9.27664 19.8217C9.35934 19.824 9.44094 19.8263 9.52137 19.8263V19.7033H9.44013C9.30579 19.7033 9.20036 19.7033 9.20036 19.5468V17.7311C9.20036 17.693 9.19048 17.6646 9.16684 17.6646C9.14265 17.6646 9.11422 17.6696 9.08043 17.6885C9.0615 17.7027 8.79292 17.7921 8.56774 17.8587V17.9345C8.57515 17.9384 8.58237 17.9422 8.58941 17.9459C8.75105 18.0312 8.81693 18.066 8.81693 18.2654V19.5468C8.81693 19.7033 8.721 19.7033 8.58713 19.7033Z" fill="white"/>
<path fill-rule="evenodd" clip-rule="evenodd" d="M9.97647 18.2935C9.97647 18.1187 9.92356 18.0715 9.69875 17.9816V17.8917C9.90454 17.8256 10.1007 17.7639 10.331 17.6646C10.3454 17.6646 10.3594 17.6742 10.3594 17.7116V18.0192C10.6329 17.8256 10.8678 17.6646 11.1893 17.6646C11.5961 17.6646 11.7399 17.9577 11.7399 18.3267V19.5467C11.7399 19.7032 11.8453 19.7032 11.9795 19.7032H12.0659V19.8262C11.8977 19.8262 11.7301 19.8168 11.558 19.8168C11.3852 19.8168 11.2127 19.8214 11.0402 19.8262V19.7032H11.1265C11.2608 19.7032 11.3562 19.7032 11.3562 19.5467V18.3221C11.3562 18.0523 11.1893 17.9201 10.9158 17.9201C10.7624 17.9201 10.518 18.0428 10.3594 18.1472V19.5467C10.3594 19.7032 10.4653 19.7032 10.5996 19.7032H10.6857V19.8262C10.518 19.8262 10.3501 19.8168 10.1776 19.8168C10.0054 19.8168 9.83253 19.8214 9.66016 19.8262V19.7032H9.74657C9.88072 19.7032 9.97647 19.7032 9.97647 19.5467V18.2935Z" fill="white"/>
<path fill-rule="evenodd" clip-rule="evenodd" d="M12.4305 18.7953C12.4205 18.6342 12.4205 18.5636 12.4305 18.5209H13.7766L13.8202 18.4925C13.8245 18.4639 13.8245 18.4357 13.8245 18.4071C13.8202 17.9057 13.403 17.6646 13.0145 17.6646C12.6793 17.6646 12.0469 17.9388 12.0469 18.8662C12.0469 19.1687 12.2001 19.8973 12.9623 19.8973C13.3549 19.8973 13.628 19.6513 13.8485 19.3627L13.7816 19.2966C13.6046 19.4714 13.3983 19.6134 13.1344 19.6134C12.7516 19.6134 12.4586 19.2445 12.4305 18.7953ZM13.4123 18.2512C13.4123 18.3079 13.3983 18.3695 13.2787 18.3695H12.4446C12.5021 18.0285 12.7033 17.8161 12.9954 17.8161C13.2639 17.8161 13.4123 18.01 13.4123 18.2512Z" fill="white"/>
<path fill-rule="evenodd" clip-rule="evenodd" d="M13.9336 19.7032H14.063C14.1967 19.7032 14.2926 19.7032 14.2926 19.5467V18.2181C14.2926 18.0715 14.1155 18.0429 14.0435 18.0051V17.9344C14.3933 17.7876 14.585 17.6644 14.6288 17.6644C14.6569 17.6644 14.6713 17.6786 14.6713 17.7262V18.1518H14.6814C14.8008 17.9674 15.0024 17.6644 15.2945 17.6644C15.4144 17.6644 15.5676 17.7448 15.5676 17.9151C15.5676 18.0429 15.4767 18.1567 15.3426 18.1567C15.1935 18.1567 15.1935 18.0429 15.026 18.0429C14.9444 18.0429 14.6762 18.1518 14.6762 18.4357V19.5467C14.6762 19.7032 14.7718 19.7032 14.9062 19.7032H15.1743V19.8262C14.9107 19.8214 14.7101 19.8167 14.5038 19.8167C14.3074 19.8167 14.1061 19.8214 13.9336 19.8262V19.7032Z" fill="white"/>
<path fill-rule="evenodd" clip-rule="evenodd" d="M15.7778 19.1687C15.8402 19.4808 16.0317 19.7458 16.3817 19.7458C16.6641 19.7458 16.7694 19.5755 16.7694 19.41C16.7694 18.8518 15.7252 19.0315 15.7252 18.2702C15.7252 18.0051 15.9411 17.6646 16.468 17.6646C16.621 17.6646 16.8271 17.7073 17.0139 17.8019L17.0476 18.284H16.9374C16.8895 17.9863 16.7219 17.8161 16.415 17.8161C16.2232 17.8161 16.0413 17.9249 16.0413 18.1281C16.0413 18.6819 17.153 18.5113 17.153 19.2538C17.153 19.5658 16.8991 19.8972 16.3287 19.8972C16.1371 19.8972 15.9118 19.8311 15.7443 19.7365L15.6914 19.1926L15.7778 19.1687Z" fill="white"/>
<path fill-rule="evenodd" clip-rule="evenodd" d="M21.4827 17.3807H21.3632C21.2719 16.8277 20.8742 16.6051 20.3378 16.6051C19.7864 16.6051 18.986 16.9691 18.986 18.1043C18.986 19.0602 19.6766 19.7458 20.4142 19.7458C20.8884 19.7458 21.2817 19.4244 21.3776 18.9274L21.4877 18.9557L21.3776 19.6463C21.1763 19.7697 20.6348 19.8973 20.3183 19.8973C19.1973 19.8973 18.4883 19.183 18.4883 18.1188C18.4883 17.149 19.3649 16.4535 20.3041 16.4535C20.6921 16.4535 21.066 16.5768 21.4348 16.7047L21.4827 17.3807Z" fill="white"/>
<path fill-rule="evenodd" clip-rule="evenodd" d="M21.6523 19.7033H21.743C21.8775 19.7033 21.9735 19.7033 21.9735 19.5468V16.9128C21.9735 16.6052 21.9015 16.5957 21.7195 16.5438V16.468C21.911 16.4067 22.1123 16.3216 22.2129 16.2645C22.2653 16.2364 22.3039 16.2124 22.318 16.2124C22.3471 16.2124 22.3568 16.241 22.3568 16.2788V19.5468C22.3568 19.7033 22.4621 19.7033 22.5965 19.7033H22.6774V19.8263C22.5149 19.8263 22.3471 19.8168 22.1746 19.8168C22.0023 19.8168 21.8298 19.8215 21.6523 19.8263V19.7033Z" fill="white"/>
<path fill-rule="evenodd" clip-rule="evenodd" d="M24.7306 19.5659C24.7306 19.6513 24.7831 19.6558 24.8645 19.6558C24.9221 19.6558 24.9937 19.6513 25.0563 19.6513V19.7509C24.85 19.7696 24.4571 19.869 24.366 19.8973L24.342 19.883V19.5C24.0549 19.7317 23.8342 19.8973 23.4936 19.8973C23.2349 19.8973 22.9667 19.7317 22.9667 19.3347V18.1235C22.9667 18.0005 22.9476 17.8822 22.6797 17.8587V17.7687C22.8522 17.7641 23.2349 17.7357 23.2974 17.7357C23.3505 17.7357 23.3505 17.7687 23.3505 17.8729V19.093C23.3505 19.2351 23.3505 19.6417 23.7672 19.6417C23.9301 19.6417 24.1457 19.5187 24.3467 19.3536V18.0808C24.3467 17.9863 24.1168 17.9346 23.9447 17.8872V17.802C24.3754 17.7734 24.6442 17.7357 24.692 17.7357C24.7306 17.7357 24.7306 17.7687 24.7306 17.821V19.5659Z" fill="white"/>
<path fill-rule="evenodd" clip-rule="evenodd" d="M26.3983 17.6645C26.1348 17.6645 25.8758 17.8444 25.6843 18.0051V16.2788C25.6843 16.241 25.6749 16.2124 25.6462 16.2124C25.6351 16.2124 25.6114 16.2256 25.5783 16.2438C25.5668 16.2502 25.5541 16.2572 25.5404 16.2645C25.4398 16.3215 25.2389 16.4066 25.0469 16.468V16.5437C25.0531 16.5455 25.0593 16.5472 25.0653 16.5489C25.2337 16.5966 25.301 16.6157 25.301 16.9128V18.9465C25.301 19.235 25.2767 19.5094 25.2342 19.7885L25.3345 19.8404L25.478 19.7317C25.4966 19.7394 25.5164 19.7485 25.538 19.7584C25.662 19.815 25.8423 19.8973 26.144 19.8973C26.8294 19.8973 27.2894 19.2775 27.2894 18.658C27.2894 18.1426 26.9541 17.6645 26.3983 17.6645ZM26.1778 19.7743C25.8568 19.7743 25.6843 19.4714 25.6843 19.2915V18.1426C25.8136 18.0338 25.9619 17.9202 26.1397 17.9202C26.5135 17.9202 26.906 18.3457 26.906 18.8564C26.906 19.2775 26.6906 19.7743 26.1778 19.7743Z" fill="white"/>
<path fill-rule="evenodd" clip-rule="evenodd" d="M5.01172 22.5763H5.04837C5.14218 22.5763 5.24115 22.5636 5.24115 22.4299V21.0815C5.24115 20.9472 5.14218 20.9345 5.04837 20.9345H5.01172V20.8573C5.11346 20.8573 5.26986 20.8675 5.39801 20.8675C5.52819 20.8675 5.6845 20.8573 5.80701 20.8573V20.9345H5.77036C5.67693 20.9345 5.57758 20.9472 5.57758 21.0815V22.4299C5.57758 22.5636 5.67693 22.5763 5.77036 22.5763H5.80701V22.654C5.68191 22.654 5.52514 22.6437 5.39524 22.6437C5.26737 22.6437 5.11346 22.654 5.01172 22.654V22.5763Z" fill="white"/>
<path fill-rule="evenodd" clip-rule="evenodd" d="M5.73772 22.6596C5.82386 22.6622 5.90938 22.6647 5.98589 22.6647H6V22.5764V22.5652H5.94132C5.82555 22.5631 5.71993 22.5556 5.71925 22.4298V21.0814C5.71993 20.9555 5.82555 20.9472 5.94132 20.9456H5.98589H6V20.8575V20.8459H5.98589C5.91147 20.8459 5.8273 20.8484 5.74207 20.851C5.65468 20.8535 5.56616 20.8562 5.48589 20.8562C5.40371 20.8562 5.3117 20.8533 5.22473 20.8506C5.1468 20.8482 5.07291 20.8459 5.01377 20.8459H5V20.9344V20.9456H5.05823C5.17411 20.9472 5.27917 20.9555 5.2803 21.0814V22.4298C5.27917 22.5556 5.17411 22.5631 5.05823 22.5652H5.01377H5V22.5764V22.6537V22.6647H5.01377C5.0729 22.6647 5.14596 22.6624 5.22304 22.66C5.30909 22.6573 5.40014 22.6544 5.4824 22.6544C5.5623 22.6544 5.65032 22.657 5.73772 22.6596ZM5.97224 22.5878L5.97213 22.6428C5.90087 22.6425 5.82198 22.6401 5.74218 22.6377C5.65365 22.6351 5.564 22.6324 5.4824 22.6324C5.39688 22.6324 5.30212 22.6354 5.2136 22.6382C5.14572 22.6403 5.08152 22.6424 5.02798 22.6428V22.5878H5.05823C5.17197 22.5878 5.30772 22.5718 5.30772 22.4298V21.0814C5.30772 20.9392 5.17197 20.9232 5.05823 20.9232H5.02798V20.8685C5.08371 20.8687 5.15167 20.8709 5.22339 20.8731C5.3104 20.8758 5.40295 20.8787 5.48589 20.8787C5.56453 20.8787 5.65087 20.876 5.73611 20.8735C5.81846 20.871 5.89977 20.8685 5.97213 20.8685V20.9232H5.94132C5.82758 20.9232 5.69194 20.9392 5.69138 21.0814V22.4298C5.69194 22.5718 5.82758 22.5878 5.94132 22.5878H5.97224Z" fill="white"/>
<path fill-rule="evenodd" clip-rule="evenodd" d="M7.59859 22.1466L7.60385 22.1414V21.1765C7.60385 20.9654 7.45502 20.9345 7.37691 20.9345H7.31948V20.8573C7.44209 20.8573 7.56212 20.8675 7.68454 20.8675C7.79127 20.8675 7.89865 20.8573 8.00519 20.8573V20.9345H7.96632C7.85654 20.9345 7.73403 20.9551 7.73403 21.2614V22.4327C7.73403 22.5225 7.73671 22.6125 7.74945 22.6923H7.65047L6.30787 21.2149V22.2754C6.30787 22.4992 6.35182 22.5763 6.55281 22.5763H6.59703V22.6538C6.48504 22.6538 6.37305 22.6437 6.26069 22.6437C6.1438 22.6437 6.02369 22.6538 5.90625 22.6538V22.5763H5.94272C6.12266 22.5763 6.17732 22.4557 6.17732 22.2498V21.1658C6.17732 21.022 6.05711 20.9345 5.94032 20.9345H5.90625V20.8573C6.00522 20.8573 6.10697 20.8675 6.20585 20.8675C6.28414 20.8675 6.35994 20.8573 6.43805 20.8573L7.59859 22.1466Z" fill="white"/>
<path fill-rule="evenodd" clip-rule="evenodd" d="M7.6418 22.6997L7.74936 22.7034H7.76284L7.76044 22.6904C7.74779 22.6121 7.74511 22.5225 7.74511 22.4327V21.2614C7.74816 20.958 7.85858 20.9485 7.96623 20.9457H8.0051H8.01646V20.8574V20.8462H8.0051C7.95103 20.8462 7.8972 20.8487 7.84356 20.8512C7.79031 20.8537 7.73726 20.8562 7.68436 20.8562C7.62358 20.8562 7.56323 20.8537 7.50273 20.8512C7.44194 20.8487 7.38099 20.8462 7.31931 20.8462H7.30777V20.934V20.9457H7.37673C7.45272 20.9473 7.59102 20.972 7.59241 21.1767V22.1234L6.44646 20.8501C6.39459 20.8478 6.3471 20.8503 6.3009 20.8528C6.26881 20.8545 6.23735 20.8562 6.20549 20.8562C6.15672 20.8562 6.10698 20.8537 6.05701 20.8512C6.0066 20.8487 5.95596 20.8462 5.90589 20.8462H5.89453V20.934V20.9457H5.94014C6.05185 20.9457 6.1656 21.0292 6.16615 21.1661V22.2498C6.16412 22.4551 6.11491 22.5643 5.94263 22.5653H5.90589H5.89453V22.6537V22.6648H5.90589C5.96522 22.6648 6.02492 22.6622 6.08443 22.6596C6.14354 22.657 6.20245 22.6545 6.2606 22.6545C6.31605 22.6545 6.37174 22.657 6.42762 22.6596C6.48387 22.6622 6.5403 22.6648 6.59686 22.6648H6.60849V22.5763V22.5653H6.55263C6.35635 22.5628 6.32191 22.4994 6.31877 22.2756V21.244L7.6418 22.6997ZM7.73662 22.681H7.65029L6.29633 21.186V22.2756C6.29661 22.4994 6.34748 22.5875 6.55263 22.5882H6.58559V22.6429C6.53536 22.6424 6.48491 22.6401 6.43431 22.6378C6.37656 22.6351 6.31862 22.6325 6.2606 22.6325C6.19991 22.6325 6.13859 22.6351 6.07744 22.6378C6.0238 22.6401 5.97028 22.6424 5.91743 22.6429V22.5875L5.94263 22.5882C6.13015 22.5875 6.18831 22.4558 6.18831 22.2498V21.1661C6.18831 21.0155 6.06247 20.9233 5.94014 20.9233H5.91706L5.91743 20.8685C5.96297 20.8688 6.00925 20.8712 6.05567 20.8736C6.10571 20.8762 6.15591 20.8787 6.20549 20.8787C6.2455 20.8787 6.28451 20.8761 6.32326 20.8736C6.36148 20.871 6.39945 20.8685 6.43787 20.8685L7.59739 22.1626L7.60626 22.1547L7.61152 22.1493L7.61493 21.1767C7.61493 20.9586 7.45687 20.9233 7.37673 20.9233H7.33075L7.33094 20.8685C7.38769 20.8688 7.44406 20.8712 7.50057 20.8736C7.56146 20.8762 7.6225 20.8787 7.68436 20.8787C7.73805 20.8787 7.7916 20.8762 7.84503 20.8736C7.89469 20.8712 7.94425 20.8688 7.99375 20.8685V20.9233H7.96623C7.85387 20.9233 7.72286 20.9526 7.72286 21.2614V22.4327C7.72286 22.518 7.7248 22.6035 7.73662 22.681Z" fill="white"/>
<path fill-rule="evenodd" clip-rule="evenodd" d="M8.39487 20.986C8.19904 20.986 8.19166 21.0324 8.15251 21.2199H8.07422C8.08456 21.148 8.09758 21.076 8.1057 21.0012C8.11604 20.9291 8.12121 20.8573 8.12121 20.7828H8.18372C8.20477 20.86 8.26986 20.8573 8.34058 20.8573H9.68549C9.75621 20.8573 9.82121 20.8549 9.82657 20.7775L9.88879 20.7878C9.87873 20.8573 9.86821 20.9268 9.86036 20.9962C9.85537 21.0658 9.85537 21.1354 9.85537 21.2046L9.77708 21.2333C9.77163 21.1381 9.75861 20.986 9.58403 20.986H9.15656V22.3552C9.15656 22.5538 9.24787 22.5764 9.3726 22.5764H9.42236V22.6539C9.32071 22.6539 9.13809 22.6437 8.99748 22.6437C8.84108 22.6437 8.65827 22.6539 8.55644 22.6539V22.5764H8.6062C8.75005 22.5764 8.82252 22.5637 8.82252 22.3606V20.986H8.39487Z" fill="white"/>
<path fill-rule="evenodd" clip-rule="evenodd" d="M9.42394 22.6647C9.32136 22.6647 9.13902 22.6545 8.99878 22.6545C8.84256 22.6545 8.66022 22.6647 8.55783 22.6647H8.54693V22.6539V22.5652H8.55783H8.6075C8.75134 22.5618 8.80905 22.5602 8.81228 22.3605V20.9971H8.39617V20.986V20.9745H8.83499V22.3605C8.83499 22.5671 8.7507 22.5878 8.6075 22.5882H8.56909V22.6423C8.67194 22.6418 8.84746 22.6325 8.99878 22.6325C9.13477 22.6325 9.30899 22.6418 9.41212 22.6423V22.5882H9.3739C9.24797 22.5878 9.14659 22.5574 9.14659 22.3552V20.9745H9.58542C9.76047 20.975 9.78327 21.1218 9.789 21.2174L9.84532 21.197C9.84532 21.13 9.84568 21.0626 9.85039 20.9948C9.85796 20.9285 9.86757 20.8629 9.87735 20.7972L9.83756 20.7907C9.82537 20.8654 9.75216 20.8693 9.68661 20.8686H8.34188H8.32831C8.26709 20.8686 8.20007 20.8657 8.1768 20.7938H8.13368C8.13331 20.865 8.12824 20.934 8.11817 21.0026C8.1106 21.0733 8.09869 21.1412 8.08909 21.2092H8.14476C8.1792 21.0301 8.20154 20.9718 8.39617 20.9745V20.986V20.9971C8.2033 21.0005 8.20745 21.0325 8.16489 21.2228L8.16295 21.2315H8.15381H8.0625L8.06398 21.2182C8.07459 21.1463 8.0878 21.0742 8.09555 20.9994C8.10626 20.928 8.11125 20.8566 8.11125 20.7828V20.7714H8.12251H8.19397L8.19591 20.7795C8.21364 20.8445 8.26192 20.8449 8.32831 20.846H8.34188H9.68661C9.75918 20.8449 9.81217 20.844 9.8166 20.7765L9.81762 20.7644L9.82944 20.7668L9.90293 20.7783L9.90126 20.7896C9.89092 20.8585 9.88058 20.928 9.87292 20.9971C9.86784 21.0658 9.86784 21.135 9.86784 21.2047V21.2124L9.86046 21.2155L9.76813 21.2488L9.76739 21.2337C9.76047 21.1371 9.75013 20.9971 9.58542 20.9971H9.16921V22.3552C9.1717 22.5492 9.24963 22.5628 9.3739 22.5652H9.43502V22.5762V22.6647H9.42394Z" fill="white"/>
<path fill-rule="evenodd" clip-rule="evenodd" d="M9.97266 22.5763H10.0093C10.1031 22.5763 10.2022 22.5636 10.2022 22.4299V21.0815C10.2022 20.9472 10.1031 20.9345 10.0093 20.9345H9.97266V20.8573C10.1314 20.8573 10.4031 20.8675 10.6216 20.8675C10.8411 20.8675 11.1118 20.8573 11.289 20.8573C11.2845 20.9678 11.2871 21.1381 11.2947 21.2511L11.2162 21.2718C11.2035 21.1045 11.1723 20.9708 10.8984 20.9708H10.5363V21.6448H10.8462C11.0026 21.6448 11.0366 21.5576 11.0521 21.4184H11.1302C11.1251 21.5189 11.1224 21.6192 11.1224 21.7196C11.1224 21.8175 11.1251 21.9152 11.1302 22.0129L11.0521 22.0282C11.0366 21.8741 11.0288 21.7737 10.8486 21.7737H10.5363V22.3731C10.5363 22.5405 10.687 22.5405 10.8538 22.5405C11.1669 22.5405 11.3049 22.5199 11.3833 22.2267L11.4562 22.2443C11.4222 22.3812 11.391 22.5173 11.3678 22.654C11.2007 22.654 10.9009 22.6437 10.6665 22.6437C10.4314 22.6437 10.1213 22.654 9.97266 22.654V22.5763Z" fill="white"/>
<path fill-rule="evenodd" clip-rule="evenodd" d="M11.0725 22.6602C11.1858 22.6626 11.2903 22.6648 11.367 22.6648H11.376L11.378 22.6557C11.4014 22.5195 11.4324 22.3832 11.4664 22.2472L11.4688 22.2363L11.3852 22.2151L11.3744 22.2132L11.3716 22.2235C11.2931 22.5124 11.1672 22.5275 10.8533 22.5294L10.8485 22.5294C10.6809 22.5286 10.5467 22.528 10.5465 22.3732V21.7844H10.848C11.0131 21.7862 11.0218 21.8647 11.0378 22.0083C11.0386 22.0153 11.0394 22.0224 11.0402 22.0297L11.0411 22.0416L11.1318 22.0238L11.1411 22.0216L11.1409 22.0126C11.1359 21.9147 11.1327 21.817 11.1327 21.7196C11.1327 21.6192 11.1359 21.519 11.1409 21.4188L11.1411 21.407H11.0514H11.0411L11.0402 21.4173C11.0225 21.556 10.9956 21.6319 10.8455 21.6333H10.5463L10.5465 20.9818H10.8978C11.1663 20.9842 11.189 21.1056 11.2043 21.2725L11.2049 21.2857L11.2965 21.2621L11.3051 21.2597L11.3048 21.2503C11.2997 21.1769 11.2969 21.0797 11.2969 20.9907C11.2969 20.9423 11.2977 20.8966 11.2997 20.8578L11.3 20.8462H11.2884C11.2043 20.8462 11.0993 20.8484 10.9888 20.8508C10.866 20.8534 10.7364 20.8562 10.621 20.8562C10.5031 20.8562 10.3698 20.8533 10.2471 20.8506C10.1424 20.8483 10.0453 20.8462 9.97202 20.8462H9.96094V20.9346V20.9457H10.0087C10.1031 20.9474 10.1888 20.9558 10.19 21.0815V22.4298C10.1888 22.5557 10.1031 22.5638 10.0087 22.5653H9.97202H9.96094V22.5763V22.6539V22.6648H9.97202C10.038 22.6648 10.1356 22.6627 10.2443 22.6604C10.3808 22.6575 10.5349 22.6543 10.6657 22.6543C10.7925 22.6543 10.9386 22.6574 11.0725 22.6602ZM11.4418 22.2528C11.4098 22.3823 11.38 22.5124 11.3574 22.6424C11.2811 22.6423 11.1789 22.6402 11.0686 22.638C10.9359 22.6354 10.7913 22.6325 10.6657 22.6325C10.5376 22.6325 10.3871 22.6355 10.2526 22.6382C10.1464 22.6403 10.0503 22.6423 9.98328 22.6424V22.5882H10.0087C10.1015 22.5873 10.2124 22.5719 10.213 22.4298V21.0815C10.2124 20.9392 10.1015 20.9234 10.0087 20.9233H9.98328V20.8686C10.054 20.8689 10.145 20.8708 10.243 20.873C10.3666 20.8757 10.5015 20.8786 10.621 20.8786C10.7375 20.8786 10.8687 20.8758 10.9926 20.8732C11.0968 20.871 11.1959 20.8689 11.2768 20.8686C11.2754 20.9049 11.2744 20.9465 11.2744 20.9907C11.2744 21.0767 11.2773 21.1698 11.2818 21.2426L11.2255 21.2574C11.214 21.0956 11.169 20.9574 10.8978 20.9592H10.5238V21.6561H10.8455C11.0043 21.6576 11.0469 21.5637 11.0614 21.4294H11.1179C11.1129 21.5263 11.1104 21.6228 11.1104 21.7196C11.1104 21.8141 11.1129 21.9092 11.1179 22.0037L11.0614 22.0154C11.0484 21.869 11.03 21.7605 10.848 21.7625H10.5238V22.3732C10.5247 22.5518 10.689 22.5518 10.8533 22.5518C11.1612 22.5537 11.3122 22.5281 11.3903 22.2401L11.4418 22.2528Z" fill="white"/>
<path fill-rule="evenodd" clip-rule="evenodd" d="M11.6212 20.9346C11.7022 20.9346 11.8065 20.9422 11.8065 21.13V22.4377C11.8065 22.5331 11.718 22.5764 11.6212 22.5764H11.5742V22.6539C11.64 22.6539 11.7039 22.6513 11.767 22.6487C11.829 22.6462 11.8903 22.6437 11.9523 22.6437C12.0268 22.6437 12.1017 22.6463 12.1766 22.6488C12.2515 22.6514 12.3264 22.6539 12.4008 22.6539V22.5764H12.3536C12.234 22.5764 12.1404 22.5691 12.1404 22.3707V21.8196H12.3121C12.4814 22.116 12.6539 22.3941 12.8546 22.6539C12.8948 22.6539 12.9358 22.6514 12.9768 22.6488C13.018 22.6463 13.0591 22.6437 13.0996 22.6437C13.1425 22.6437 13.1848 22.6463 13.2272 22.6488C13.2696 22.6514 13.312 22.6539 13.3551 22.6539V22.5764C13.2271 22.5612 13.1752 22.5308 13.1021 22.4218L12.6565 21.7635C12.8624 21.6832 13.0188 21.5418 13.0188 21.3105C13.0188 20.9447 12.7264 20.8573 12.3981 20.8573C12.3311 20.8573 12.2672 20.8597 12.2013 20.8622C12.1312 20.8648 12.0589 20.8675 11.9784 20.8675C11.8861 20.8675 11.793 20.8641 11.7148 20.8612C11.6581 20.8591 11.6093 20.8573 11.5742 20.8573V20.9346H11.6212ZM12.2676 21.7269H12.1404V20.9604C12.1514 20.9596 12.1622 20.9584 12.1741 20.957C12.2011 20.9539 12.2339 20.9501 12.2884 20.9501C12.5207 20.9501 12.6692 21.0968 12.6692 21.3255C12.6692 21.6293 12.5287 21.7269 12.2676 21.7269Z" fill="white"/>
<path fill-rule="evenodd" clip-rule="evenodd" d="M13.2254 22.6596C13.268 22.6622 13.3108 22.6648 13.3547 22.6648H13.3657V22.5762V22.5666L13.3563 22.5652C13.2294 22.5492 13.1839 22.5224 13.1111 22.4157L12.6731 21.7684C12.8744 21.6873 13.0298 21.5423 13.0298 21.31C13.0289 20.9362 12.7265 20.8467 12.3978 20.8459C12.3303 20.8459 12.2661 20.8483 12.2 20.8508C12.1301 20.8534 12.0582 20.8561 11.9781 20.8561C11.8862 20.8561 11.7936 20.8527 11.7155 20.8498C11.6586 20.8477 11.6094 20.8459 11.5738 20.8459H11.5625V20.9345V20.9456H11.6209L11.6258 20.9458C11.7055 20.9483 11.7924 20.9511 11.7943 21.1298V22.4376C11.7939 22.5244 11.7148 22.5645 11.6209 22.5652H11.5738H11.5625V22.6538V22.6648H11.5738C11.6401 22.6648 11.7042 22.6621 11.7675 22.6595H11.7675H11.7675C11.8292 22.6569 11.8902 22.6544 11.9517 22.6544C12.0255 22.6544 12.1002 22.657 12.175 22.6596L12.175 22.6596H12.175C12.2501 22.6622 12.3253 22.6648 12.4 22.6648H12.4117V22.5762V22.5652H12.3533L12.3472 22.5651C12.23 22.5625 12.1537 22.5608 12.151 22.3703V21.8312H12.3051C12.4736 22.1251 12.6449 22.4014 12.845 22.6605C12.8992 22.6631 12.9508 22.6604 13.0004 22.6578H13.0004H13.0004C13.0339 22.6561 13.0666 22.6544 13.0987 22.6544C13.1413 22.6544 13.1833 22.657 13.2254 22.6596H13.2254H13.2254ZM12.3178 21.8087H12.1397H12.1284V22.3703C12.1284 22.5735 12.2343 22.5878 12.3533 22.5882H12.3889V22.6424C12.3176 22.6423 12.2456 22.6398 12.1734 22.6374C12.0995 22.6349 12.0254 22.6324 11.9517 22.6324C11.8903 22.6324 11.8299 22.6348 11.769 22.6373H11.769H11.769C11.7084 22.6398 11.6475 22.6423 11.5848 22.6424V22.5882H11.6209C11.719 22.5878 11.817 22.541 11.817 22.4376V21.1298C11.817 20.9365 11.7018 20.9233 11.6209 20.9232H11.5848V20.8685C11.6191 20.8687 11.6644 20.8704 11.7163 20.8723C11.7939 20.8752 11.8862 20.8787 11.9781 20.8787C12.0592 20.8787 12.1318 20.8759 12.202 20.8733C12.2677 20.8708 12.3313 20.8685 12.3978 20.8685C12.7254 20.8701 13.0067 20.9529 13.0069 21.31C13.0067 21.536 12.8556 21.6736 12.6516 21.753L12.6387 21.7582L13.0925 22.4281C13.1638 22.5349 13.221 22.5711 13.3434 22.5861V22.6424C13.306 22.6418 13.2688 22.6397 13.2315 22.6375C13.1877 22.6349 13.1436 22.6324 13.0987 22.6324C13.0579 22.6324 13.0164 22.635 12.9752 22.6376H12.9752H12.9752L12.9752 22.6376H12.9752C12.9344 22.6402 12.8938 22.6428 12.8542 22.6428C12.6622 22.3878 12.4909 22.11 12.3211 21.8142L12.3178 21.8087ZM12.1397 21.738H12.1284V20.9501L12.1383 20.949C12.1479 20.9483 12.1575 20.9472 12.1679 20.9461L12.1679 20.9461C12.1961 20.943 12.2304 20.9392 12.2879 20.9392C12.5255 20.9392 12.6799 21.0914 12.6803 21.326C12.6796 21.6333 12.5303 21.7378 12.2672 21.738H12.1397ZM12.6579 21.326C12.6555 21.6252 12.5255 21.7136 12.2672 21.7159H12.151V20.9702C12.1588 20.9695 12.1667 20.9686 12.175 20.9676C12.202 20.9646 12.2341 20.961 12.2879 20.961C12.5151 20.9618 12.6566 21.1014 12.6579 21.326Z" fill="white"/>
<path fill-rule="evenodd" clip-rule="evenodd" d="M15.1257 22.1466L15.1305 22.1414V21.1765C15.1305 20.9654 14.9821 20.9345 14.9039 20.9345H14.8467V20.8573C14.9692 20.8573 15.0888 20.8675 15.2117 20.8675C15.3187 20.8675 15.4251 20.8573 15.5327 20.8573V20.9345H15.4935C15.384 20.9345 15.2613 20.9551 15.2613 21.2614V22.4327C15.2613 22.5225 15.2639 22.6125 15.2768 22.6923H15.1778L13.8352 21.2149V22.2754C13.8352 22.4992 13.8793 22.5763 14.0802 22.5763H14.1245V22.6538C14.0125 22.6538 13.9003 22.6437 13.7884 22.6437C13.6707 22.6437 13.5508 22.6538 13.4336 22.6538V22.5763H13.4697C13.6498 22.5763 13.7048 22.4557 13.7048 22.2498V21.1658C13.7048 21.022 13.5847 20.9345 13.4676 20.9345H13.4336V20.8573C13.5323 20.8573 13.6344 20.8675 13.7334 20.8675C13.8111 20.8675 13.887 20.8573 13.9653 20.8573L15.1257 22.1466Z" fill="white"/>
<path fill-rule="evenodd" clip-rule="evenodd" d="M15.1696 22.6998L15.277 22.7033H15.2894L15.2881 22.6907C15.2749 22.6115 15.2725 22.5224 15.2725 22.4326V21.2613C15.2752 20.958 15.386 20.9483 15.4937 20.9456H15.5324H15.5439V20.8575V20.8459H15.5324C15.4786 20.8459 15.4248 20.8485 15.3712 20.8511C15.3179 20.8536 15.2647 20.8562 15.2118 20.8562C15.151 20.8562 15.0907 20.8536 15.0302 20.8511C14.9694 20.8485 14.9084 20.8459 14.8466 20.8459H14.8352V20.9344V20.9456H14.9041C14.9799 20.9467 15.1187 20.972 15.1194 21.1765V22.1234L13.9732 20.8494C13.9222 20.8474 13.8753 20.85 13.8299 20.8526C13.7973 20.8544 13.7655 20.8562 13.7336 20.8562C13.6845 20.8562 13.6345 20.8536 13.5844 20.8511C13.534 20.8485 13.4836 20.8459 13.4338 20.8459H13.4219V20.9344V20.9456H13.4677C13.5791 20.9456 13.6929 21.0288 13.6931 21.1658V22.2494C13.6915 22.455 13.642 22.5646 13.4699 22.5652H13.4338H13.4219V22.6539V22.6647H13.4338C13.4925 22.6647 13.5521 22.6621 13.6115 22.6595C13.6707 22.6568 13.7298 22.6542 13.7879 22.6542C13.8437 22.6542 13.8994 22.6568 13.9553 22.6594C14.0115 22.6621 14.0678 22.6647 14.1244 22.6647H14.1356V22.5762V22.5652H14.0804C13.8838 22.5627 13.8495 22.4993 13.8463 22.2754V21.2439L15.1696 22.6998ZM15.2637 22.6809H15.178L13.8233 21.1864V22.2754C13.8239 22.4993 13.875 22.5878 14.0804 22.5882H14.1134V22.6423C14.0614 22.642 14.0092 22.6397 13.9568 22.6374C13.9007 22.6349 13.8445 22.6324 13.7879 22.6324C13.7287 22.6324 13.6691 22.6349 13.6097 22.6374C13.5543 22.6397 13.499 22.642 13.4445 22.6423V22.5878L13.4699 22.5882C13.6569 22.5874 13.7157 22.4559 13.7157 22.2494V21.1658C13.7157 21.0151 13.5902 20.924 13.4677 20.9232H13.4445V20.8685C13.4902 20.8688 13.5363 20.8711 13.5827 20.8735C13.6329 20.8761 13.6833 20.8787 13.7336 20.8787C13.7732 20.8787 13.8119 20.8761 13.8505 20.8735C13.8888 20.871 13.9268 20.8685 13.9654 20.8685L15.1257 22.1629L15.1337 22.1546L15.1387 22.1493L15.1424 21.1765C15.1424 20.9585 14.9844 20.924 14.9041 20.9232H14.8578V20.8685C14.9146 20.8688 14.971 20.8711 15.0276 20.8735C15.0886 20.8761 15.1497 20.8787 15.2118 20.8787C15.2655 20.8787 15.3192 20.8761 15.3726 20.8735C15.4222 20.8711 15.4716 20.8688 15.5209 20.8685V20.9232H15.4937C15.382 20.924 15.25 20.9526 15.2499 21.2613V22.4326C15.2499 22.5179 15.2523 22.6036 15.2637 22.6809Z" fill="white"/>
<path fill-rule="evenodd" clip-rule="evenodd" d="M15.927 22.367C15.9356 22.3422 15.9451 22.3151 15.954 22.2858L16.037 22.0181H16.6289L16.7303 22.3164C16.7596 22.399 16.783 22.4684 16.783 22.5019C16.783 22.5663 16.6809 22.5763 16.6212 22.5763H16.5925V22.6539C16.7253 22.6484 16.856 22.6437 16.9839 22.6437C17.1086 22.6437 17.2261 22.6484 17.3435 22.6539V22.5763H17.3279C17.2418 22.5763 17.1869 22.5459 17.1555 22.4738C17.1281 22.4109 17.1025 22.3364 17.0771 22.2624C17.0712 22.2452 17.0653 22.228 17.0594 22.211L16.5797 20.865C16.5747 20.8526 16.5699 20.8392 16.5652 20.826C16.5622 20.8174 16.5592 20.8088 16.5561 20.8007C16.5504 20.7927 16.5455 20.7927 16.5377 20.7927C16.5314 20.7927 16.5272 20.7943 16.5219 20.7963C16.5203 20.7969 16.5187 20.7975 16.5169 20.7981C16.4674 20.8291 16.363 20.8805 16.2799 20.9086C16.2654 20.9967 16.224 21.113 16.1912 21.2055C16.1884 21.2132 16.1857 21.2208 16.1831 21.2282L15.7655 22.4091C15.727 22.5172 15.6408 22.5763 15.5392 22.5763H15.5234V22.6539C15.6176 22.6484 15.711 22.6437 15.8048 22.6437C15.9095 22.6437 16.0161 22.6484 16.1206 22.6539V22.5763H16.0917C16.0058 22.5763 15.896 22.5636 15.896 22.4864C15.896 22.4558 15.9099 22.4159 15.927 22.367ZM16.3291 21.1455H16.3344L16.5739 21.874H16.0867L16.3291 21.1455Z" fill="white"/>
<path fill-rule="evenodd" clip-rule="evenodd" d="M17.3083 22.6633L17.3423 22.6647L17.3541 22.6653V22.5765V22.5647H17.3275C17.2438 22.5646 17.1958 22.5377 17.1656 22.469C17.1355 22.4018 17.1078 22.3199 17.0807 22.2397L17.0698 22.2075L16.5896 20.8614C16.5816 20.8406 16.5735 20.8176 16.5661 20.7966C16.5577 20.783 16.5436 20.7812 16.5373 20.7815C16.5285 20.7815 16.5221 20.7839 16.5162 20.7861L16.5122 20.7875C16.4619 20.8187 16.3571 20.8706 16.2754 20.8979C16.2546 20.9927 16.2129 21.1093 16.1798 21.2018L16.1718 21.2242L15.7543 22.4056C15.7166 22.5101 15.6357 22.5646 15.5385 22.5647H15.523H15.5117V22.6539V22.6653L15.5237 22.6647L15.5512 22.6633L15.5512 22.6633H15.5512C15.6356 22.6588 15.7205 22.6542 15.8047 22.6542C15.8993 22.6542 15.9959 22.6588 16.0911 22.6634L16.1194 22.6647L16.1312 22.6653V22.5765V22.5647H16.0912C16.0047 22.5647 15.9072 22.5496 15.9064 22.4867C15.9062 22.4591 15.9197 22.4202 15.9365 22.3719C15.9452 22.3467 15.9548 22.319 15.9638 22.289L16.0449 22.029H16.6201L16.7193 22.32C16.748 22.402 16.7714 22.4727 16.7708 22.5019C16.7707 22.5513 16.6811 22.5647 16.6206 22.5647H16.592H16.5805V22.6539V22.6653L16.5924 22.6647L16.6415 22.6629C16.7576 22.6585 16.8713 22.6542 16.9834 22.6542C17.0956 22.6542 17.2023 22.6588 17.3083 22.6633ZM16.6528 22.64L16.6033 22.6417V22.5879H16.6206C16.6797 22.5864 16.7899 22.5809 16.7937 22.5019C16.7937 22.4643 16.7701 22.397 16.7416 22.3153L16.7408 22.3128L16.6361 22.0071H16.0281L15.9421 22.2822L15.9535 22.2858L15.9421 22.2826C15.9335 22.3118 15.9242 22.3386 15.9156 22.3633C15.8986 22.4121 15.8846 22.4526 15.8844 22.4867C15.8877 22.5775 16.0062 22.587 16.0912 22.5879H16.108V22.6417L16.0812 22.6406L16.0812 22.6406C15.99 22.6365 15.8964 22.6324 15.8047 22.6324C15.7235 22.6324 15.6425 22.6364 15.5623 22.6404L15.5344 22.6417V22.5879H15.5385C15.6447 22.5882 15.7361 22.5246 15.776 22.4129L16.193 21.2316L16.1989 21.2151C16.2322 21.1218 16.275 21.0021 16.29 20.9104C16.3672 20.8901 16.4719 20.8394 16.522 20.8073L16.5273 20.8058C16.5309 20.8047 16.5335 20.8039 16.5373 20.8039H16.542C16.5429 20.8039 16.5434 20.8039 16.5437 20.8041C16.5441 20.8043 16.5443 20.8046 16.5448 20.8052L16.5459 20.8065C16.5487 20.814 16.5516 20.8223 16.5546 20.831L16.5546 20.831C16.559 20.8434 16.5636 20.8565 16.5683 20.8686L17.0482 22.2144L17.0543 22.2323C17.0831 22.3171 17.1129 22.4052 17.1446 22.478C17.1767 22.5539 17.2383 22.5885 17.3275 22.5879H17.3314V22.6417L17.2951 22.6403C17.1937 22.6364 17.0916 22.6324 16.9834 22.6324C16.8748 22.6324 16.7648 22.6362 16.6528 22.64H16.6528H16.6528ZM16.0704 21.885L16.32 21.1342H16.3286H16.334H16.3419L16.5895 21.885H16.0704ZM16.558 21.8626H16.1015L16.331 21.1731L16.558 21.8626Z" fill="white"/>
<path fill-rule="evenodd" clip-rule="evenodd" d="M17.4577 20.986C17.2621 20.986 17.2543 21.0324 17.2152 21.2199H17.1367C17.1471 21.148 17.1603 21.076 17.1684 21.0012C17.1787 20.9291 17.1836 20.8573 17.1836 20.7828H17.2464C17.2672 20.86 17.3326 20.8573 17.4028 20.8573H18.7484C18.8184 20.8573 18.8835 20.8549 18.8889 20.7775L18.9514 20.7878C18.9413 20.8573 18.931 20.9268 18.9231 20.9962C18.9173 21.0658 18.9173 21.1354 18.9173 21.2046L18.8392 21.2333C18.8345 21.1381 18.8215 20.986 18.6466 20.986H18.219V22.3552C18.219 22.5538 18.3104 22.5764 18.4353 22.5764H18.485V22.6539C18.3832 22.6539 18.201 22.6437 18.0599 22.6437C17.9038 22.6437 17.7209 22.6539 17.6192 22.6539V22.5764H17.6687C17.8124 22.5764 17.8853 22.5637 17.8853 22.3606V20.986H17.4577Z" fill="white"/>
<path fill-rule="evenodd" clip-rule="evenodd" d="M18.4825 22.6647C18.3801 22.6647 18.1975 22.6545 18.0575 22.6545C17.9016 22.6545 17.719 22.6647 17.6168 22.6647H17.6053V22.6539V22.5652H17.6168H17.6663C17.8099 22.5618 17.8676 22.5602 17.8712 22.3605L17.871 20.9971H17.4553V20.986V20.9745H17.894V22.3605C17.894 22.5671 17.8093 22.5873 17.6663 22.5878H17.6279V22.6429C17.731 22.6418 17.9061 22.6325 18.0575 22.6325C18.1937 22.6325 18.368 22.6418 18.4711 22.6429L18.471 22.5878H18.4326C18.3073 22.5873 18.2056 22.5576 18.2052 22.3552V20.9745H18.6442C18.8192 20.975 18.8421 21.1218 18.8471 21.2174L18.9039 21.197C18.9039 21.13 18.9042 21.0626 18.9094 20.9951C18.9166 20.9289 18.9263 20.8629 18.9359 20.7974L18.8964 20.7907C18.8845 20.8654 18.8108 20.8696 18.7459 20.8686H17.4004H17.3871C17.3257 20.8691 17.259 20.8657 17.2354 20.7935H17.1927C17.1921 20.8648 17.1871 20.934 17.1769 21.0026C17.1698 21.0734 17.1572 21.1416 17.1473 21.2092H17.2033C17.2376 21.0301 17.2603 20.9716 17.4553 20.9745V20.986V20.9971C17.2619 21.0003 17.2663 21.0325 17.2237 21.2228L17.2217 21.2315H17.2128H17.1211L17.1227 21.2187C17.1337 21.1463 17.1464 21.0742 17.1542 20.9998C17.1649 20.928 17.1698 20.8566 17.1698 20.7828V20.7714H17.1812H17.2523L17.2546 20.7795C17.2728 20.8445 17.3204 20.8449 17.3871 20.846C17.3918 20.846 17.3958 20.8462 17.4004 20.8462H18.7459C18.8179 20.8449 18.8707 20.844 18.8751 20.7767L18.8758 20.7644L18.8881 20.7668L18.962 20.7783L18.96 20.7896C18.9494 20.8585 18.9395 20.928 18.9316 20.9971C18.9263 21.0658 18.9263 21.1354 18.9263 21.2047V21.2124L18.9188 21.2155L18.8264 21.2488L18.826 21.2337C18.8192 21.1371 18.8089 20.9971 18.6442 20.9971H18.2278V22.3552C18.2306 22.5492 18.3085 22.5628 18.4326 22.5652H18.4935V22.5762V22.6647H18.4825Z" fill="white"/>
<path fill-rule="evenodd" clip-rule="evenodd" d="M19.0469 22.5763H19.0833C19.1775 22.5763 19.2761 22.5636 19.2761 22.4299V21.0815C19.2761 20.9472 19.1775 20.9345 19.0833 20.9345H19.0469V20.8573C19.1488 20.8573 19.3049 20.8675 19.4325 20.8675C19.5633 20.8675 19.7197 20.8573 19.8424 20.8573V20.9345H19.8059C19.7118 20.9345 19.6126 20.9472 19.6126 21.0815V22.4299C19.6126 22.5636 19.7118 22.5763 19.8059 22.5763H19.8424V22.654C19.7172 22.654 19.5606 22.6437 19.4304 22.6437C19.3024 22.6437 19.1488 22.654 19.0469 22.654V22.5763Z" fill="white"/>
<path fill-rule="evenodd" clip-rule="evenodd" d="M19.7737 22.6596C19.8599 22.6622 19.9454 22.6648 20.0218 22.6648H20.0352V22.5763V22.5653H19.9772C19.8606 22.5638 19.7559 22.5557 19.7546 22.4298V21.0815C19.7559 20.9558 19.8606 20.9473 19.9772 20.9457H20.0218H20.0352V20.8574V20.8462H20.0218C19.9473 20.8462 19.863 20.8486 19.7776 20.8511C19.6899 20.8536 19.6011 20.8562 19.5206 20.8562C19.4386 20.8562 19.3467 20.8534 19.2597 20.8508C19.1818 20.8484 19.1079 20.8462 19.0489 20.8462H19.0352V20.9346V20.9457H19.0935C19.2087 20.9473 19.3145 20.9558 19.3151 21.0815V22.4298C19.3145 22.5557 19.2087 22.5638 19.0935 22.5653H19.0489H19.0352V22.5763V22.6539V22.6648H19.0489C19.1078 22.6648 19.1809 22.6624 19.258 22.66C19.3443 22.6572 19.4356 22.6543 19.5179 22.6543C19.598 22.6543 19.6862 22.657 19.7737 22.6596ZM20.0075 22.5879V22.6424C19.9353 22.6421 19.8553 22.6398 19.7745 22.6375C19.6869 22.635 19.5983 22.6325 19.5179 22.6325C19.4314 22.6325 19.3357 22.6354 19.2466 22.638C19.1793 22.64 19.1159 22.6419 19.0629 22.6424V22.5879H19.0935C19.207 22.5879 19.343 22.5719 19.3434 22.4298V21.0815C19.343 20.9392 19.207 20.9234 19.0935 20.9233H19.0629V20.8686C19.1192 20.8689 19.1878 20.871 19.2601 20.8732C19.3465 20.8758 19.4382 20.8786 19.5206 20.8786C19.6019 20.8786 19.6912 20.876 19.779 20.8735C19.8588 20.8712 19.9374 20.8689 20.0075 20.8686V20.9233H19.9772C19.863 20.9234 19.7273 20.9392 19.7273 21.0815V22.4298C19.7273 22.5719 19.863 22.5879 19.9772 22.5879H20.0075Z" fill="white"/>
<path fill-rule="evenodd" clip-rule="evenodd" d="M21.8825 21.7069C21.8825 21.1588 21.4395 20.8187 20.8836 20.8187C20.3415 20.8187 19.9219 21.2333 19.9219 21.7684C19.9219 22.3217 20.3441 22.6923 20.8971 22.6923C21.4524 22.6923 21.8825 22.2987 21.8825 21.7069ZM21.5172 21.7635C21.5172 22.1387 21.4291 22.5791 20.9231 22.5791C20.5006 22.5791 20.2868 22.1387 20.2868 21.6781C20.2868 21.3335 20.4224 20.9319 20.8786 20.9319C21.3117 20.9319 21.5172 21.3872 21.5172 21.7635Z" fill="white"/>
<mask id="mask1_1199_15581" style="mask-type:luminance" maskUnits="userSpaceOnUse" x="19" y="20" width="3" height="3">
<path fill-rule="evenodd" clip-rule="evenodd" d="M19.9102 20.8075H21.8935V22.7033H19.9102V20.8075Z" fill="white"/>
</mask>
<g mask="url(#mask1_1199_15581)">
<path fill-rule="evenodd" clip-rule="evenodd" d="M20.8835 20.8075C20.3356 20.8084 19.9114 21.227 19.9102 21.7684C19.9114 22.328 20.3392 22.7024 20.8969 22.7034C21.4574 22.7024 21.8929 22.3046 21.8935 21.7063C21.8925 21.1515 21.4433 20.808 20.8835 20.8075ZM19.9323 21.7684C19.9329 21.2389 20.3474 20.8297 20.8835 20.8297C21.4348 20.8305 21.8711 21.1652 21.8715 21.7063C21.8707 22.2928 21.4467 22.6806 20.8969 22.6809C20.3494 22.6806 19.9332 22.3156 19.9323 21.7684ZM20.8786 20.9205C20.4131 20.9205 20.276 21.3318 20.2753 21.6781C20.276 22.1413 20.4901 22.5894 20.923 22.5898C21.4383 22.5898 21.5277 22.1387 21.5286 21.7635C21.5277 21.3852 21.3213 20.9214 20.8786 20.9205ZM21.5059 21.7635C21.5047 22.1387 21.4189 22.5674 20.923 22.5678C20.5101 22.567 20.2983 22.1364 20.2979 21.6781C20.2989 21.3353 20.4312 20.9436 20.8786 20.9431C21.3023 20.9438 21.5059 21.3905 21.5059 21.7635Z" fill="#1F1410"/>
</g>
<path fill-rule="evenodd" clip-rule="evenodd" d="M23.6377 22.1466L23.6431 22.1414V21.1765C23.6431 20.9654 23.4941 20.9345 23.4158 20.9345H23.3593V20.8573C23.4814 20.8573 23.6015 20.8675 23.7236 20.8675C23.831 20.8675 23.9378 20.8573 24.0448 20.8573V20.9345H24.0054C23.8962 20.9345 23.7733 20.9551 23.7733 21.2614V22.4327C23.7733 22.5225 23.7759 22.6125 23.7892 22.6923H23.6901L22.3471 21.2149V22.2754C22.3471 22.4992 22.3913 22.5763 22.5921 22.5763H22.6366V22.6538C22.5244 22.6538 22.4125 22.6437 22.3004 22.6437C22.183 22.6437 22.0628 22.6538 21.9453 22.6538V22.5763H21.9822C22.1624 22.5763 22.2166 22.4557 22.2166 22.2498V21.1658C22.2166 21.022 22.0971 20.9345 21.9795 20.9345H21.9453V20.8573C22.0447 20.8573 22.1463 20.8675 22.2453 20.8675C22.3234 20.8675 22.3989 20.8573 22.4774 20.8573L23.6377 22.1466Z" fill="white"/>
<path fill-rule="evenodd" clip-rule="evenodd" d="M23.6804 22.6997L23.7883 22.7034H23.801L23.7988 22.6907C23.786 22.6121 23.784 22.5225 23.784 22.4327V21.2614C23.7864 20.9582 23.8972 20.9485 24.0045 20.9457H24.0439H24.0551V20.8574V20.8462H24.0439C23.9896 20.8462 23.9358 20.8487 23.8822 20.8512C23.8289 20.8537 23.7757 20.8562 23.7225 20.8562C23.6619 20.8562 23.6017 20.8537 23.5412 20.8512C23.4805 20.8487 23.4196 20.8462 23.3582 20.8462H23.3464V20.9345V20.9457H23.415C23.4912 20.9473 23.6301 20.972 23.6307 21.1767V22.1234L22.4851 20.8501C22.4329 20.8478 22.3853 20.8503 22.3391 20.8528C22.3072 20.8545 22.276 20.8562 22.2445 20.8562C22.1954 20.8562 22.1455 20.8537 22.0955 20.8512C22.0451 20.8487 21.9945 20.8462 21.9444 20.8462H21.9336V20.9345V20.9457H21.9786C22.0906 20.9457 22.2043 21.0288 22.2046 21.1659V22.2498C22.2026 22.4551 22.1531 22.5643 21.9813 22.5648H21.9444H21.9336V22.6537V22.6648H21.9444C22.0038 22.6648 22.0635 22.6622 22.123 22.6596C22.1822 22.657 22.2412 22.6545 22.2995 22.6545C22.355 22.6545 22.4107 22.657 22.4666 22.6596C22.5228 22.6622 22.5791 22.6648 22.6357 22.6648H22.647V22.5765V22.5648H22.5908C22.395 22.5624 22.3604 22.4994 22.3574 22.2756V21.244L23.6804 22.6997ZM23.7747 22.681H23.6893L22.3348 21.186V22.2756C22.3348 22.4994 22.3861 22.5879 22.5908 22.5882H22.6245V22.6424C22.572 22.6421 22.5197 22.6398 22.4672 22.6375C22.4114 22.635 22.3556 22.6325 22.2995 22.6325C22.2402 22.6325 22.1806 22.635 22.1212 22.6375C22.0656 22.6398 22.0103 22.6421 21.9556 22.6424V22.5879L21.9813 22.5882C22.1687 22.5875 22.2269 22.4558 22.2269 22.2498V21.1659C22.2269 21.0152 22.101 20.924 21.9786 20.9233H21.9556V20.8685C22.0012 20.8688 22.0475 20.8712 22.094 20.8736C22.1442 20.8761 22.1946 20.8787 22.2445 20.8787C22.2842 20.8787 22.3232 20.8761 22.3619 20.8736C22.4002 20.871 22.4382 20.8685 22.4765 20.8685L23.6368 22.163L23.6452 22.1547L23.6502 22.1493L23.653 21.1767C23.653 20.9591 23.4956 20.924 23.415 20.9233H23.3693V20.8685C23.4261 20.8688 23.4826 20.8712 23.5392 20.8736C23.6 20.8762 23.6609 20.8787 23.7225 20.8787C23.7766 20.8787 23.8302 20.8762 23.8838 20.8736C23.9335 20.8712 23.9831 20.8688 24.0327 20.8685V20.9233H24.0045C23.8928 20.924 23.7613 20.952 23.7613 21.2614V22.4327C23.7613 22.518 23.7635 22.6035 23.7747 22.681Z" fill="white"/>
<path fill-rule="evenodd" clip-rule="evenodd" d="M24.4374 22.3699C24.4462 22.3443 24.4558 22.3163 24.4647 22.2858L24.5485 22.0181H25.1405L25.2417 22.3164C25.2708 22.399 25.2944 22.4684 25.2944 22.5019C25.2944 22.5663 25.1921 22.5763 25.1325 22.5763H25.1037V22.6539C25.2367 22.6484 25.3673 22.6437 25.4948 22.6437C25.6201 22.6437 25.7376 22.6484 25.855 22.6539V22.5763H25.8391C25.7533 22.5763 25.6983 22.5459 25.6671 22.4738C25.6383 22.4089 25.6117 22.3314 25.5855 22.2551C25.5805 22.2403 25.5754 22.2256 25.5704 22.211L25.0909 20.865C25.0871 20.8551 25.0833 20.8446 25.0794 20.834C25.0753 20.8227 25.0712 20.8113 25.0671 20.8007C25.0619 20.7927 25.0568 20.7927 25.0491 20.7927C25.0426 20.7927 25.0379 20.7945 25.0322 20.7967C25.031 20.7972 25.0298 20.7976 25.0285 20.7981C24.9785 20.8291 24.8743 20.8805 24.7908 20.9086C24.7766 20.998 24.7344 21.1165 24.7013 21.2096C24.699 21.2159 24.6968 21.2221 24.6946 21.2282L24.2769 22.4091C24.2385 22.5172 24.152 22.5763 24.0499 22.5763H24.0352V22.6539C24.1287 22.6484 24.2223 22.6437 24.3163 22.6437C24.4206 22.6437 24.5276 22.6484 24.632 22.6539V22.5763H24.603C24.5175 22.5763 24.4075 22.5636 24.4075 22.4864C24.4075 22.4565 24.4209 22.4175 24.4374 22.3699ZM24.8406 21.1455H24.8459L25.0858 21.874H24.5977L24.8406 21.1455Z" fill="white"/>
<path fill-rule="evenodd" clip-rule="evenodd" d="M25.7952 22.6623L25.8535 22.6647L25.8654 22.6652V22.5763V22.5653H25.8385C25.7551 22.5645 25.7077 22.5376 25.6771 22.4693C25.6486 22.4047 25.6219 22.327 25.5955 22.2501L25.5809 22.2075L25.1013 20.8614C25.0962 20.849 25.0915 20.8357 25.0868 20.8228C25.0836 20.814 25.0805 20.8053 25.0773 20.7972C25.0691 20.7829 25.0556 20.7812 25.0487 20.7818C25.0393 20.7818 25.0325 20.7844 25.0264 20.7867L25.0242 20.7875C24.9735 20.8187 24.8688 20.8702 24.7869 20.8981C24.7663 20.9893 24.7268 21.101 24.6948 21.1918L24.6834 21.2241L24.2663 22.4056C24.2283 22.5097 24.147 22.5647 24.0497 22.5653H24.0348H24.0234V22.6537V22.6652L24.0348 22.6647L24.0836 22.6622C24.1612 22.6583 24.2387 22.6544 24.3159 22.6544C24.4032 22.6544 24.4926 22.6584 24.5808 22.6624H24.5808H24.5808L24.6308 22.6647L24.6424 22.6652V22.5763V22.5653H24.6026C24.5163 22.5653 24.4186 22.5496 24.4186 22.4863C24.4182 22.459 24.4315 22.4206 24.448 22.3725C24.4567 22.3472 24.4663 22.3193 24.4754 22.2889L24.5559 22.0289H25.1313L25.2305 22.3199C25.2597 22.4023 25.2831 22.4727 25.2826 22.5018C25.2823 22.5513 25.1927 22.5653 25.1319 22.5653H25.1035H25.0923V22.6537V22.6652L25.1038 22.6647L25.1771 22.6621H25.1771C25.2848 22.6582 25.3908 22.6544 25.4945 22.6544C25.5984 22.6544 25.6971 22.6584 25.7952 22.6623ZM25.1402 22.6411L25.1145 22.6421V22.5879H25.1319C25.1914 22.5864 25.3007 22.5808 25.3046 22.5018C25.3046 22.4639 25.281 22.3957 25.2521 22.3128L25.1477 22.0071H24.5397L24.4538 22.2822L24.4644 22.2857L24.4538 22.2826C24.4448 22.3135 24.435 22.3417 24.426 22.3675C24.4096 22.4144 24.396 22.4534 24.3957 22.4863C24.3989 22.5778 24.5178 22.5869 24.6026 22.5879H24.6202V22.6417L24.5911 22.6404C24.5 22.6364 24.4073 22.6323 24.3159 22.6323C24.2355 22.6323 24.1559 22.6363 24.0763 22.6402L24.0458 22.6417V22.5879H24.0497C24.1564 22.5881 24.2474 22.5246 24.2869 22.4129L24.7045 21.2316L24.7138 21.2055L24.7138 21.2055C24.7464 21.1136 24.787 20.999 24.8017 20.9103C24.8789 20.8906 24.9832 20.839 25.0339 20.8075L25.0393 20.8058C25.0425 20.8047 25.045 20.8039 25.0487 20.8039H25.0538C25.0545 20.8039 25.0549 20.8039 25.0552 20.804C25.0557 20.8043 25.0561 20.8048 25.0571 20.8062L25.0576 20.807L25.0615 20.8181C25.067 20.8338 25.0734 20.852 25.0796 20.8685L25.5596 22.2147L25.5759 22.2623L25.5759 22.2623L25.5759 22.2623C25.6016 22.3375 25.6277 22.4137 25.6561 22.4779C25.6885 22.5539 25.7501 22.5881 25.8385 22.5879H25.8426L25.843 22.6417L25.8065 22.6403C25.705 22.6363 25.6029 22.6323 25.4945 22.6323C25.3787 22.6323 25.2604 22.6367 25.1402 22.6411ZM24.5819 21.8847L24.8319 21.1342H24.84H24.8455H24.8536L25.1002 21.8847H24.5819ZM25.0694 21.8626H24.6133L24.8425 21.1735L25.0694 21.8626Z" fill="white"/>
<path fill-rule="evenodd" clip-rule="evenodd" d="M26.5115 22.4015C26.5115 22.5047 26.5839 22.5354 26.6674 22.5458C26.7744 22.5537 26.8917 22.5537 27.012 22.5405C27.1212 22.5278 27.2152 22.4661 27.2619 22.4015C27.3035 22.3447 27.327 22.2728 27.3428 22.2162H27.4185C27.3898 22.3628 27.3531 22.5074 27.3218 22.654C27.0928 22.654 26.8628 22.6437 26.6338 22.6437C26.4039 22.6437 26.1748 22.654 25.9453 22.654V22.5763H25.9813C26.0755 22.5763 26.1774 22.5636 26.1774 22.4039V21.0815C26.1774 20.9472 26.0755 20.9345 25.9813 20.9345H25.9453V20.8573C26.0832 20.8573 26.2191 20.8675 26.3571 20.8675C26.4904 20.8675 26.6206 20.8573 26.7536 20.8573V20.9345H26.6881C26.5893 20.9345 26.5115 20.9374 26.5115 21.0735V22.4015Z" fill="white"/>
<path fill-rule="evenodd" clip-rule="evenodd" d="M26.9766 22.6597C27.0914 22.6622 27.2064 22.6648 27.3214 22.6648H27.3301L27.3324 22.656C27.3452 22.5968 27.3587 22.538 27.3721 22.4792C27.3919 22.3927 27.4117 22.3062 27.4293 22.2186L27.4317 22.205H27.3421H27.3335L27.3311 22.2136C27.3155 22.2696 27.2924 22.3403 27.2524 22.3951C27.2074 22.4567 27.1159 22.5172 27.0097 22.5296C26.9424 22.5366 26.8761 22.5396 26.8122 22.5396C26.7619 22.5396 26.7137 22.5379 26.6677 22.5346C26.5862 22.5232 26.5225 22.4974 26.5218 22.4015V21.0735C26.5237 20.9496 26.5814 20.9482 26.6747 20.946C26.6789 20.9459 26.6833 20.9458 26.6877 20.9457H26.7533H26.7639V20.8574V20.8462H26.7533C26.6862 20.8462 26.62 20.8487 26.554 20.8512C26.4883 20.8537 26.4228 20.8562 26.3567 20.8562C26.288 20.8562 26.2198 20.8537 26.1514 20.8512C26.0827 20.8487 26.014 20.8462 25.9444 20.8462H25.9336V20.9346V20.9457H25.981C26.0759 20.9473 26.1647 20.9558 26.1658 21.0811V22.4041C26.1647 22.5568 26.0755 22.5632 25.981 22.5653H25.9444H25.9336V22.6537V22.6648H25.9444C26.0595 22.6648 26.1744 22.6622 26.2893 22.6597C26.4041 22.6571 26.5187 22.6546 26.6334 22.6546C26.7476 22.6546 26.862 22.6571 26.9766 22.6597ZM27.3506 22.4711C27.3375 22.5279 27.3244 22.5849 27.312 22.6424C27.2003 22.6423 27.0885 22.6399 26.9766 22.6374C26.8623 22.635 26.7479 22.6325 26.6334 22.6325C26.5189 22.6325 26.4047 22.635 26.2906 22.6374C26.179 22.6399 26.0675 22.6423 25.956 22.6424V22.5879H25.981C26.0747 22.5879 26.188 22.5706 26.188 22.4041V21.0811C26.188 20.9392 26.074 20.9233 25.981 20.9233H25.956V20.8686C26.0207 20.8689 26.085 20.8713 26.1494 20.8736C26.2181 20.8762 26.287 20.8787 26.3567 20.8787C26.4237 20.8787 26.4898 20.8762 26.5558 20.8736C26.6177 20.8713 26.6795 20.8689 26.7416 20.8686V20.9233H26.6877C26.5906 20.9233 26.4989 20.9304 26.4989 21.0735V22.4015C26.4986 22.5115 26.5807 22.5473 26.6657 22.5568C26.7127 22.5601 26.7618 22.5622 26.8122 22.5622C26.8763 22.5622 26.9438 22.5585 27.0121 22.5518C27.1253 22.538 27.2218 22.475 27.2705 22.4085C27.3115 22.3522 27.3346 22.2832 27.3508 22.2272H27.4043C27.3879 22.3091 27.3693 22.39 27.3506 22.4711Z" fill="white"/>
<path fill-rule="evenodd" clip-rule="evenodd" d="M27.8297 21.1409C27.8297 20.9408 27.6766 20.7842 27.4717 20.7842C27.2669 20.7842 27.1133 20.9408 27.1133 21.1409C27.1133 21.3404 27.2669 21.4955 27.4717 21.4955C27.6766 21.4955 27.8297 21.3404 27.8297 21.1409ZM27.7548 21.1409C27.7548 21.2937 27.632 21.4293 27.4717 21.4293C27.3107 21.4293 27.1877 21.2937 27.1877 21.1409C27.1877 20.9876 27.3107 20.8508 27.4717 20.8508C27.6336 20.8508 27.7548 20.9876 27.7548 21.1409ZM27.2934 21.3285V21.311L27.3034 21.3096C27.3386 21.3049 27.3455 21.304 27.3455 21.279V21.0158C27.3455 20.9788 27.3416 20.9661 27.2949 20.968V20.9501H27.4783C27.5414 20.9501 27.5992 20.9797 27.5992 21.0442C27.5992 21.0973 27.564 21.1363 27.5147 21.1518L27.5734 21.2332C27.6009 21.27 27.632 21.3049 27.6524 21.3171V21.3285H27.5825C27.5594 21.3285 27.5382 21.295 27.5056 21.2433C27.491 21.2203 27.4742 21.1937 27.454 21.1648H27.4141V21.2827C27.4141 21.304 27.4209 21.3049 27.4551 21.3094L27.4666 21.311V21.3285H27.2934ZM27.4565 21.1409H27.4141V20.9736H27.4541C27.4909 20.9736 27.5243 20.9935 27.5243 21.0503C27.5243 21.1061 27.5026 21.1409 27.4565 21.1409Z" fill="#FEFEFE"/>
</svg>
