<svg width="32" height="33" viewBox="0 0 32 33" fill="none" xmlns="http://www.w3.org/2000/svg">
<circle cx="16" cy="16.1772" r="16" fill="#475569"/>
<mask id="mask0_1199_15543" style="mask-type:luminance" maskUnits="userSpaceOnUse" x="6" y="12" width="8" height="8">
<path fill-rule="evenodd" clip-rule="evenodd" d="M6 12.8207H13.9649V19.0404H6V12.8207Z" fill="white"/>
</mask>
<g mask="url(#mask0_1199_15543)">
<path fill-rule="evenodd" clip-rule="evenodd" d="M13.965 15.8826C13.5381 14.1259 11.9424 12.8207 10.0386 12.8207C7.8082 12.8207 6 14.6124 6 16.8227C6 17.643 6.24933 18.4055 6.67662 19.0404L10.6716 17.3096L12.3368 16.5845L12.3372 16.5879L13.965 15.8826ZM7.7378 17.0317L11.7722 15.309C11.3488 14.8332 10.7291 14.533 10.0386 14.533C8.76258 14.533 7.72808 15.5581 7.72808 16.8227C7.72808 16.8932 7.73155 16.9628 7.7378 17.0317Z" fill="white"/>
</g>
<path fill-rule="evenodd" clip-rule="evenodd" d="M13.0313 19.7903C11.5642 21.2474 9.62335 21.3904 7.91797 20.307L8.8815 18.7741C9.85192 19.3811 10.8268 19.2826 11.8061 18.478L13.0313 19.7903Z" fill="white"/>
<path fill-rule="evenodd" clip-rule="evenodd" d="M14.6394 18.7804L14.6289 11.1772H16.111V18.5751C16.111 18.6461 16.1201 18.7086 16.2159 18.7448L17.5051 19.2321L16.9243 20.7001L15.4139 20.079C14.8412 19.8435 14.6404 19.5022 14.6394 18.7804Z" fill="white"/>
<path fill-rule="evenodd" clip-rule="evenodd" d="M20.0606 18.8203C19.5374 18.3903 19.2005 17.7194 19.2005 16.9648C19.2005 16.2938 19.467 15.689 19.8936 15.2608L18.9922 13.7167C18.0859 14.4755 17.5039 15.6479 17.5039 16.9648C17.5039 18.384 18.1795 19.6361 19.2091 20.3827L20.0606 18.8203Z" fill="#D8DCDE"/>
<path fill-rule="evenodd" clip-rule="evenodd" d="M20.8043 14.6139C21.046 14.5284 21.3065 14.4816 21.5781 14.4816C22.5573 14.4816 23.3923 15.0874 23.7185 15.9387L25.4954 15.7926C25.0665 14.055 23.4759 12.7644 21.5781 12.7644C21.0419 12.7644 20.5305 12.8682 20.0625 13.0552L20.8043 14.6139Z" fill="white"/>
<path fill-rule="evenodd" clip-rule="evenodd" d="M24.0222 16.891C23.9627 18.166 22.9337 19.1811 21.6727 19.1811C21.475 19.1811 21.2833 19.1558 21.0999 19.1089L20.3828 20.8073C20.789 20.943 21.2223 21.0175 21.6727 21.0175C23.906 21.0175 25.7262 19.2112 25.8157 16.9488L24.0222 16.891Z" fill="#D8DCDE"/>
</svg>
