<svg width="24" height="25" viewBox="0 0 24 25" fill="none" xmlns="http://www.w3.org/2000/svg">
<path d="M20 5.89153V18.463C20 19.4094 19.2321 20.1772 18.2857 20.1772H15.2393V13.8487H17.4036L17.7143 11.4344H15.2393V9.89153C15.2393 9.19153 15.4321 8.71653 16.4357 8.71653H17.7143V6.55939C17.4929 6.53082 16.7357 6.46296 15.85 6.46296C14.0071 6.46296 12.7429 7.58796 12.7429 9.65582V11.438H10.5714V13.8522H12.7464V20.1772H5.71429C4.76786 20.1772 4 19.4094 4 18.463V5.89153C4 4.9451 4.76786 4.17725 5.71429 4.17725H18.2857C19.2321 4.17725 20 4.9451 20 5.89153Z" fill="#475569"/>
<mask id="mask0_2073_78050" style="mask-type:luminance" maskUnits="userSpaceOnUse" x="4" y="4" width="16" height="17">
<path d="M20 5.89153V18.463C20 19.4094 19.2321 20.1772 18.2857 20.1772H15.2393V13.8487H17.4036L17.7143 11.4344H15.2393V9.89153C15.2393 9.19153 15.4321 8.71653 16.4357 8.71653H17.7143V6.55939C17.4929 6.53082 16.7357 6.46296 15.85 6.46296C14.0071 6.46296 12.7429 7.58796 12.7429 9.65582V11.438H10.5714V13.8522H12.7464V20.1772H5.71429C4.76786 20.1772 4 19.4094 4 18.463V5.89153C4 4.9451 4.76786 4.17725 5.71429 4.17725H18.2857C19.2321 4.17725 20 4.9451 20 5.89153Z" fill="white"/>
</mask>
<g mask="url(#mask0_2073_78050)">
<rect y="0.177246" width="24" height="24" fill="#475569"/>
</g>
</svg>
