<svg width="32" height="33" viewBox="0 0 32 33" fill="none" xmlns="http://www.w3.org/2000/svg">
<circle cx="16" cy="16.1772" r="16" fill="#475569"/>
<path fill-rule="evenodd" clip-rule="evenodd" d="M29.0061 14.8422C29.1155 14.3121 29.2 13.7557 29.2631 13.1772H30C29.9184 13.662 29.829 14.1385 29.7397 14.6151L29.7396 14.6151L29.7396 14.6151L29.7396 14.6152L29.7396 14.6152C29.5052 15.865 29.2707 17.1149 29.1775 18.5123H28.5092C28.5119 18.3624 28.5334 18.232 28.5549 18.1016C28.5628 18.0538 28.5707 18.006 28.5777 17.9572C28.5686 17.926 28.5323 17.9874 28.495 18.0506L28.495 18.0506L28.495 18.0507C28.476 18.0828 28.4567 18.1153 28.4407 18.1364C28.3772 18.2195 28.2794 18.3392 28.1836 18.4049C27.689 18.7448 26.7093 18.648 26.3672 18.2437C26.1686 18.0091 26.114 17.6802 26.1101 17.3486C26.0903 15.6338 27.1987 14.2445 29.0061 14.8422ZM21.1739 15.1848C21.2056 15.0555 21.2372 14.9263 21.2607 14.7885C21.4173 14.7838 21.5961 14.7687 21.7844 14.7528C22.6441 14.6803 23.7007 14.5911 23.7453 15.3972C23.7619 15.6956 23.6945 16.0193 23.6251 16.3523L23.6251 16.3525C23.5947 16.4982 23.564 16.6456 23.5398 16.7936L23.5285 16.8627C23.4393 17.4062 23.3577 17.9036 23.3513 18.5123H22.7172C22.7072 18.2929 22.7371 18.1153 22.7687 17.9394C22.465 18.4475 21.5878 18.8172 20.8666 18.4944C20.4921 18.3268 20.2966 17.7262 20.4724 17.1158C20.7348 16.2047 21.7328 15.9921 22.9572 16.1133L22.9585 16.1095L22.9585 16.1095C23.0126 15.9524 23.0858 15.7402 23.0429 15.5404C22.9124 14.9341 21.5584 15.2833 21.1236 15.3972C21.1395 15.3255 21.1567 15.2551 21.1739 15.1848ZM21.1236 17.3665C21.0146 18.2949 22.0805 18.1846 22.4602 17.7962C22.7408 17.5092 22.8191 16.997 22.8826 16.5817L22.8886 16.543C22.0177 16.4316 21.2142 16.5955 21.1236 17.3665ZM27.6181 18.1005C27.122 18.1116 26.8754 17.7909 26.8641 17.2591C26.8444 16.3278 27.2354 15.293 28.0293 15.2002C28.399 15.1571 28.6667 15.2469 28.9376 15.3435C28.8818 15.5782 28.8431 15.845 28.8034 16.118V16.118C28.6663 17.0621 28.5183 18.0803 27.6181 18.1005ZM10.3965 17.8141C10.0024 18.2503 9.03313 18.2436 8.95715 17.5097C8.93343 17.2807 8.98529 17.0436 9.03728 16.806L9.03728 16.806L9.03728 16.806L9.03729 16.806L9.03729 16.806L9.03729 16.806L9.03729 16.806L9.03729 16.806L9.03729 16.806L9.03729 16.8059L9.0373 16.8059C9.05779 16.7123 9.0783 16.6185 9.09421 16.5251C9.11793 16.3858 9.13888 16.2489 9.15932 16.1154L9.15932 16.1153C9.18796 15.9282 9.2156 15.7475 9.24845 15.5762C9.63675 15.0808 10.7777 15.021 10.8935 15.8448C10.994 16.5599 10.723 17.4528 10.3965 17.8141ZM9.26594 15.1138C9.59543 14.8359 10.3555 14.5438 10.9792 14.7885C12.2625 15.2921 11.5246 17.8644 10.5679 18.4049C10.1042 18.6668 9.00546 18.7963 8.83719 18.1184C8.73574 18.5587 8.67072 19.037 8.60569 19.5153L8.60569 19.5154L8.60569 19.5154L8.60569 19.5154L8.60569 19.5154L8.60569 19.5154L8.60569 19.5154L8.60568 19.5154L8.60568 19.5154C8.57552 19.7373 8.54536 19.9592 8.51156 20.1772H7.77474C8.10542 18.4101 8.41874 16.625 8.68296 14.7885H9.31698C9.31418 14.8482 9.30273 14.8989 9.29127 14.9496L9.29127 14.9496C9.2798 15.0003 9.26834 15.051 9.26555 15.1108C9.26581 15.1119 9.26588 15.1128 9.26594 15.1138ZM9.26594 15.1138L9.26064 15.1183L9.24845 15.1286C9.25809 15.1277 9.26708 15.1261 9.26594 15.1138ZM14.4749 16.0775H12.7442C12.7989 15.6618 13.1569 15.2049 13.7209 15.1824C14.2517 15.1612 14.6318 15.386 14.4749 16.0775ZM12.47 15.2719C12.7898 14.9198 13.2399 14.7597 13.7723 14.7169C14.3796 14.668 14.9764 14.7996 15.1431 15.3077C15.238 15.5967 15.1803 15.9081 15.1243 16.2103L15.1243 16.2104C15.1057 16.3107 15.0873 16.41 15.0747 16.5072C14.2789 16.4858 13.4531 16.4808 12.6585 16.5072C12.5351 17.057 12.5373 17.6896 12.9155 17.9394C13.4164 18.2703 14.2621 18.0045 14.7491 17.8141C14.737 17.8908 14.7223 17.9649 14.7077 18.039C14.6833 18.1628 14.6588 18.2866 14.6463 18.4228C13.464 18.7234 11.9859 18.7679 11.8531 17.5276C11.7601 16.6583 12.0778 15.7037 12.47 15.2719ZM7.29495 14.7885C7.27498 14.7915 7.27632 14.8168 7.27778 14.8422C7.11543 16.1107 6.89573 17.3195 6.66092 18.5123H7.39774C7.5748 17.2352 7.77767 15.9851 8.03177 14.7885H7.29495ZM25.1163 15.3792C25.3281 15.0371 25.8702 14.4662 26.5214 14.8064C26.4925 14.9038 26.4752 15.0134 26.4578 15.1229C26.446 15.1977 26.4342 15.2725 26.4186 15.3435C25.2652 15.0027 25.0339 16.1361 24.8763 17.1696C24.8568 17.2975 24.836 17.4172 24.8158 17.5331L24.8158 17.5331L24.8158 17.5332L24.8158 17.5332C24.7597 17.8557 24.7086 18.1493 24.705 18.5123H23.951C24.1978 17.3081 24.4095 16.0672 24.5851 14.7885H25.2362C25.2092 14.8751 25.1944 14.9745 25.1796 15.0738L25.1796 15.0739L25.1795 15.0739L25.1795 15.0739V15.0739C25.1636 15.181 25.1476 15.2882 25.1163 15.3792ZM18.2448 17.635C18.1769 17.4517 18.1592 17.149 18.1762 16.9189C18.2143 16.4016 18.3947 15.7718 18.6732 15.4867C19.0574 15.0932 19.816 15.1583 20.4211 15.3792C20.4322 15.2518 20.4514 15.1327 20.4706 15.0135L20.4706 15.0134L20.4706 15.0133L20.4706 15.0133C20.4834 14.9332 20.4963 14.8532 20.5068 14.7706C19.5144 14.6013 18.5727 14.7066 18.0734 15.254C17.5847 15.7898 17.2643 17.0214 17.4907 17.7962C17.7559 18.7029 18.9445 18.7522 19.907 18.4049C19.9312 18.3012 19.949 18.1907 19.9667 18.0802L19.9667 18.0801L19.9667 18.0801L19.9667 18.0801C19.9801 17.9964 19.9935 17.9127 20.0098 17.832C19.484 18.1175 18.4785 18.2658 18.2448 17.635ZM16.4284 15.4151C16.6666 14.9787 17.1802 14.5128 17.8335 14.7885C17.8248 14.8735 17.8091 14.9513 17.7935 15.0291L17.7935 15.0291L17.7935 15.0291C17.7734 15.1288 17.7533 15.2285 17.7478 15.3435C17.0564 15.0856 16.5772 15.5584 16.3941 16.1133C16.2304 16.6094 16.1609 17.2506 16.0969 17.841L16.0969 17.8411L16.0969 17.8411C16.0714 18.0771 16.0467 18.305 16.0172 18.5123H15.2803C15.31 18.3491 15.34 18.186 15.37 18.023L15.37 18.023L15.37 18.0229C15.5646 16.9646 15.7592 15.9062 15.8971 14.7885H16.5483C16.5308 14.8711 16.5166 14.9572 16.5025 15.0434L16.5025 15.0434L16.5025 15.0434C16.4816 15.1713 16.4607 15.2991 16.4284 15.4151ZM5.95837 13.2846C5.85311 13.9982 5.73454 14.6979 5.61564 15.3972C5.46066 15.3989 5.30502 15.4015 5.14921 15.4042H5.14921C4.53757 15.4145 3.92338 15.425 3.33658 15.3792C3.40691 15.0333 3.46718 14.6767 3.52746 14.3202L3.52746 14.3202C3.58636 13.9718 3.64527 13.6233 3.71357 13.2846H2.89105C2.80143 13.8158 2.71428 14.3495 2.62713 14.8832C2.42792 16.1032 2.22871 17.3232 2 18.5123H2.83962C2.8588 18.3846 2.8778 18.2568 2.89679 18.1289L2.8968 18.1289L2.8968 18.1289C3.00829 17.3785 3.11978 16.6283 3.26798 15.9164L3.47148 15.911H3.47148C4.14232 15.8928 4.90604 15.8722 5.52994 15.9343C5.46886 16.3075 5.40228 16.6749 5.3357 17.0423L5.33569 17.0423C5.2477 17.5279 5.15971 18.0135 5.08442 18.5123H5.9241C6.19384 16.7413 6.47815 14.9854 6.81515 13.2846H5.95837ZM8.1689 13.2846C8.38501 13.4851 8.19584 13.9667 8.04893 14.0724C7.95545 14.1396 7.64093 14.2169 7.50061 14.0724C7.35649 13.924 7.44172 13.5245 7.53487 13.3921C7.59276 13.3097 7.67799 13.2571 7.82617 13.231C7.98586 13.2028 8.10043 13.2212 8.1689 13.2846Z" fill="#FEFEFE"/>
</svg>
