<svg width="24" height="25" viewBox="0 0 24 25" fill="none" xmlns="http://www.w3.org/2000/svg">
<path fill-rule="evenodd" clip-rule="evenodd" d="M8.70167 4.22539C9.55481 4.18646 9.82734 4.17725 12 4.17725C14.1726 4.17725 14.4451 4.18646 15.2983 4.22555C16.1498 4.26426 16.7313 4.39947 17.2402 4.59709C17.7741 4.79801 18.2577 5.11298 18.6573 5.52002C19.0642 5.91961 19.3791 6.40317 19.58 6.93697C19.7778 7.44583 19.913 8.02735 19.9519 8.87889C19.9908 9.73205 20 10.0046 20 12.1773C20 14.3499 19.9908 14.6224 19.9519 15.4756C19.913 16.3271 19.7778 16.9087 19.58 17.4176C19.1644 18.4921 18.3149 19.3416 17.2403 19.7572C16.7315 19.955 16.15 20.0902 15.2984 20.1291C14.4453 20.168 14.1727 20.1772 12.0001 20.1772C9.82744 20.1772 9.55501 20.168 8.70173 20.1291C7.85023 20.0902 7.26872 19.955 6.75983 19.7572C6.22604 19.5564 5.74248 19.2415 5.34289 18.8345C4.93593 18.4349 4.62104 17.9514 4.42016 17.4176C4.22239 16.9087 4.08717 16.3272 4.0483 15.4756C4.00921 14.6225 4 14.3499 4 12.1773C4 10.0046 4.00921 9.73205 4.0483 8.87889C4.08701 8.02735 4.22223 7.44583 4.41984 6.93694C4.62079 6.40312 4.93578 5.91956 5.34283 5.51999C5.74242 5.11303 6.22597 4.79813 6.75977 4.59725C7.26862 4.39947 7.85014 4.26426 8.70167 4.22539ZM15.2327 5.66537C14.389 5.62688 14.136 5.61872 12 5.61872L12 5.61869C9.86387 5.61869 9.61087 5.62685 8.76728 5.66533C7.98729 5.7009 7.5637 5.83123 7.2818 5.94079C6.93433 6.06904 6.62001 6.27353 6.36196 6.53923C6.09624 6.79728 5.89172 7.11161 5.76346 7.45911C5.65391 7.74104 5.52361 8.1646 5.48801 8.94459C5.44953 9.78825 5.44136 10.0412 5.44136 12.1774C5.44136 14.3135 5.44953 14.5666 5.48801 15.4101C5.52358 16.1901 5.65391 16.6137 5.76346 16.8956C5.89171 17.2431 6.0962 17.5574 6.3619 17.8155C6.61995 18.0812 6.93426 18.2856 7.28174 18.4139C7.56367 18.5234 7.98723 18.6537 8.76721 18.6893C9.61074 18.7278 9.86364 18.736 12 18.736C14.1363 18.736 14.3893 18.7278 15.2327 18.6893C16.0127 18.6538 16.4363 18.5235 16.7182 18.4139C17.4159 18.1448 17.9673 17.5933 18.2364 16.8956C18.346 16.6137 18.4763 16.1901 18.5119 15.4101C18.5504 14.5665 18.5585 14.3135 18.5585 12.1774C18.5585 10.0412 18.5504 9.78819 18.5119 8.94459C18.4763 8.1646 18.346 7.74101 18.2364 7.45911C18.1082 7.11163 17.9037 6.79731 17.638 6.53926C17.38 6.27356 17.0656 6.06907 16.7182 5.94082C16.4362 5.83126 16.0127 5.70096 15.2327 5.66537ZM7.89186 12.1773C7.89186 9.90841 9.73112 8.06914 12 8.06914C14.2688 8.06914 16.108 9.90841 16.108 12.1773C16.108 14.4461 14.2688 16.2854 12 16.2854C9.73112 16.2854 7.89186 14.4461 7.89186 12.1773ZM9.33335 12.1772C9.33334 13.65 10.5272 14.8439 12 14.8439C13.4727 14.8439 14.6666 13.65 14.6666 12.1773C14.6666 10.7045 13.4727 9.51062 12 9.51061C10.5273 9.51061 9.33337 10.7045 9.33335 12.1772ZM16.2703 8.86682C16.8005 8.86682 17.2303 8.43702 17.2303 7.90684C17.2303 7.37665 16.8005 6.94685 16.2703 6.94685C15.7402 6.94685 15.3104 7.37665 15.3104 7.90684C15.3104 8.43702 15.7402 8.86682 16.2703 8.86682Z" fill="#475569"/>
<mask id="mask0_2073_78029" style="mask-type:luminance" maskUnits="userSpaceOnUse" x="4" y="4" width="16" height="17">
<path fill-rule="evenodd" clip-rule="evenodd" d="M8.70167 4.22539C9.55481 4.18646 9.82734 4.17725 12 4.17725C14.1726 4.17725 14.4451 4.18646 15.2983 4.22555C16.1498 4.26426 16.7313 4.39947 17.2402 4.59709C17.7741 4.79801 18.2577 5.11298 18.6573 5.52002C19.0642 5.91961 19.3791 6.40317 19.58 6.93697C19.7778 7.44583 19.913 8.02735 19.9519 8.87889C19.9908 9.73205 20 10.0046 20 12.1773C20 14.3499 19.9908 14.6224 19.9519 15.4756C19.913 16.3271 19.7778 16.9087 19.58 17.4176C19.1644 18.4921 18.3149 19.3416 17.2403 19.7572C16.7315 19.955 16.15 20.0902 15.2984 20.1291C14.4453 20.168 14.1727 20.1772 12.0001 20.1772C9.82744 20.1772 9.55501 20.168 8.70173 20.1291C7.85023 20.0902 7.26872 19.955 6.75983 19.7572C6.22604 19.5564 5.74248 19.2415 5.34289 18.8345C4.93593 18.4349 4.62104 17.9514 4.42016 17.4176C4.22239 16.9087 4.08717 16.3272 4.0483 15.4756C4.00921 14.6225 4 14.3499 4 12.1773C4 10.0046 4.00921 9.73205 4.0483 8.87889C4.08701 8.02735 4.22223 7.44583 4.41984 6.93694C4.62079 6.40312 4.93578 5.91956 5.34283 5.51999C5.74242 5.11303 6.22597 4.79813 6.75977 4.59725C7.26862 4.39947 7.85014 4.26426 8.70167 4.22539ZM15.2327 5.66537C14.389 5.62688 14.136 5.61872 12 5.61872L12 5.61869C9.86387 5.61869 9.61087 5.62685 8.76728 5.66533C7.98729 5.7009 7.5637 5.83123 7.2818 5.94079C6.93433 6.06904 6.62001 6.27353 6.36196 6.53923C6.09624 6.79728 5.89172 7.11161 5.76346 7.45911C5.65391 7.74104 5.52361 8.1646 5.48801 8.94459C5.44953 9.78825 5.44136 10.0412 5.44136 12.1774C5.44136 14.3135 5.44953 14.5666 5.48801 15.4101C5.52358 16.1901 5.65391 16.6137 5.76346 16.8956C5.89171 17.2431 6.0962 17.5574 6.3619 17.8155C6.61995 18.0812 6.93426 18.2856 7.28174 18.4139C7.56367 18.5234 7.98723 18.6537 8.76721 18.6893C9.61074 18.7278 9.86364 18.736 12 18.736C14.1363 18.736 14.3893 18.7278 15.2327 18.6893C16.0127 18.6538 16.4363 18.5235 16.7182 18.4139C17.4159 18.1448 17.9673 17.5933 18.2364 16.8956C18.346 16.6137 18.4763 16.1901 18.5119 15.4101C18.5504 14.5665 18.5585 14.3135 18.5585 12.1774C18.5585 10.0412 18.5504 9.78819 18.5119 8.94459C18.4763 8.1646 18.346 7.74101 18.2364 7.45911C18.1082 7.11163 17.9037 6.79731 17.638 6.53926C17.38 6.27356 17.0656 6.06907 16.7182 5.94082C16.4362 5.83126 16.0127 5.70096 15.2327 5.66537ZM7.89186 12.1773C7.89186 9.90841 9.73112 8.06914 12 8.06914C14.2688 8.06914 16.108 9.90841 16.108 12.1773C16.108 14.4461 14.2688 16.2854 12 16.2854C9.73112 16.2854 7.89186 14.4461 7.89186 12.1773ZM9.33335 12.1772C9.33334 13.65 10.5272 14.8439 12 14.8439C13.4727 14.8439 14.6666 13.65 14.6666 12.1773C14.6666 10.7045 13.4727 9.51062 12 9.51061C10.5273 9.51061 9.33337 10.7045 9.33335 12.1772ZM16.2703 8.86682C16.8005 8.86682 17.2303 8.43702 17.2303 7.90684C17.2303 7.37665 16.8005 6.94685 16.2703 6.94685C15.7402 6.94685 15.3104 7.37665 15.3104 7.90684C15.3104 8.43702 15.7402 8.86682 16.2703 8.86682Z" fill="white"/>
</mask>
<g mask="url(#mask0_2073_78029)">
<rect y="0.177246" width="24" height="24" fill="#475569"/>
</g>
</svg>
