<svg width="32" height="33" viewBox="0 0 32 33" fill="none" xmlns="http://www.w3.org/2000/svg">
<g clip-path="url(#clip0_1199_15756)">
<circle cx="16" cy="16.1772" r="16" fill="#475569"/>
<mask id="mask0_1199_15756" style="mask-type:luminance" maskUnits="userSpaceOnUse" x="0" y="0" width="32" height="33">
<circle cx="16" cy="16.1772" r="16" fill="white"/>
</mask>
<g mask="url(#mask0_1199_15756)">
<path fill-rule="evenodd" clip-rule="evenodd" d="M9.17675 6.56323H22.7873C23.7346 6.56323 24.526 6.88079 25.1747 7.49177C25.8495 8.11483 26.1868 8.87225 26.1868 9.76418V22.568C26.1868 23.4476 25.8495 24.2051 25.1747 24.8282C24.526 25.439 23.7346 25.7567 22.7873 25.7567H9.17675C8.22952 25.7567 7.42514 25.439 6.76346 24.8282C6.11474 24.2051 5.77734 23.4476 5.77734 22.568V9.76418C5.77734 8.87225 6.11474 8.11483 6.76346 7.49177C7.42514 6.88079 8.22952 6.56323 9.17675 6.56323Z" fill="white"/>
<path fill-rule="evenodd" clip-rule="evenodd" d="M9.07376 22.5679H7.46484V16.1538H9.07376V22.5679ZM16.9364 20.2955C15.7428 20.2833 15.133 20.5398 15.133 21.1141C15.133 21.5295 15.3925 21.7495 15.8855 21.7495C16.1321 21.7495 16.3525 21.6761 16.5343 21.5295C16.716 21.4316 16.8587 21.2729 16.9235 21.0897L16.9364 20.8086V20.2955ZM13.0441 17.7788H12.071V16.1538H10.54V17.7788H9.81334V18.8783H10.54V20.8086C10.54 21.4682 10.6697 21.9571 10.9681 22.238C11.2535 22.5312 11.6817 22.6779 12.2007 22.6779C12.5381 22.6779 12.8106 22.6413 13.0571 22.5557L13.0441 21.4316C12.9921 21.4682 12.9014 21.4928 12.7456 21.4928C12.4992 21.4928 12.3175 21.4072 12.2007 21.2362C12.11 21.1141 12.071 20.8941 12.071 20.5765V18.8783H13.0441V17.7788ZM14.5231 19.8312C15.0682 19.5135 15.8596 19.367 16.8977 19.367V19.3181C16.8977 18.8783 16.5603 18.6707 15.8596 18.6707C15.3018 18.6707 14.7956 18.7927 14.3545 19.0494L14.0562 18.1085C14.6011 17.7908 15.3018 17.6442 16.1321 17.6442C16.9364 17.6442 17.5463 17.8642 17.9614 18.2674C18.2988 18.6217 18.4806 19.1104 18.4806 19.7457V22.5679H17.0273V22.067H16.9883C16.6251 22.4701 16.1063 22.6779 15.4054 22.6779C14.8865 22.6779 14.4583 22.5312 14.121 22.238C13.8355 21.9571 13.6669 21.615 13.6669 21.2362C13.6669 20.6254 13.9653 20.1489 14.5231 19.8312ZM20.9588 17.7788H19.3758V20.552C19.3758 21.2974 19.5835 21.8471 19.9596 22.2136C20.3101 22.5312 20.7511 22.6779 21.322 22.6779C22.1135 22.6779 22.6975 22.3846 23.0606 21.8105H23.0736V22.5679H24.475V17.7788H22.8921V20.5765C22.8921 20.6986 22.879 20.8086 22.8531 20.8696C22.6714 21.2729 22.3599 21.4928 21.88 21.4928C21.2701 21.4928 20.9588 21.0897 20.9588 20.2955V17.7788ZM22.4639 17.4489H21.361L22.3341 16.1538H23.8263L22.4639 17.4489Z" fill="#879395"/>
</g>
</g>
<defs>
<clipPath id="clip0_1199_15756">
<rect width="32" height="32" fill="white" transform="translate(0 0.177246)"/>
</clipPath>
</defs>
</svg>
