<svg width="24" height="25" viewBox="0 0 24 25" fill="none" xmlns="http://www.w3.org/2000/svg">
<path fill-rule="evenodd" clip-rule="evenodd" d="M5 7.72284C5 6.81389 5.65734 6.17772 6.69065 6.17772V6.17725C7.72397 6.17725 8.38131 6.81294 8.38131 7.72237C8.38131 8.63179 7.72397 9.26797 6.69065 9.26797C5.65734 9.26797 5 8.54118 5 7.72284ZM15.614 10.1774C14.017 10.1774 13.266 10.9957 12.89 11.6319V10.4502H9.88422V19.1768H12.89V14.2681C12.89 13.9954 12.89 13.7226 12.9842 13.5409C13.1719 12.9953 13.7356 12.4502 14.4871 12.4502C15.614 12.4502 15.99 13.2686 15.99 14.4503V19.1772H18.9958V14.1775C19.0899 11.4507 17.587 10.1779 15.6145 10.1779L15.614 10.1774ZM5.18823 10.4502H8.19406V19.1768H5.18823V10.4502Z" fill="#475569"/>
<mask id="mask0_2073_78009" style="mask-type:luminance" maskUnits="userSpaceOnUse" x="5" y="6" width="14" height="14">
<path fill-rule="evenodd" clip-rule="evenodd" d="M5 7.72284C5 6.81389 5.65734 6.17772 6.69065 6.17772V6.17725C7.72397 6.17725 8.38131 6.81294 8.38131 7.72237C8.38131 8.63179 7.72397 9.26797 6.69065 9.26797C5.65734 9.26797 5 8.54118 5 7.72284ZM15.614 10.1774C14.017 10.1774 13.266 10.9957 12.89 11.6319V10.4502H9.88422V19.1768H12.89V14.2681C12.89 13.9954 12.89 13.7226 12.9842 13.5409C13.1719 12.9953 13.7356 12.4502 14.4871 12.4502C15.614 12.4502 15.99 13.2686 15.99 14.4503V19.1772H18.9958V14.1775C19.0899 11.4507 17.587 10.1779 15.6145 10.1779L15.614 10.1774ZM5.18823 10.4502H8.19406V19.1768H5.18823V10.4502Z" fill="white"/>
</mask>
<g mask="url(#mask0_2073_78009)">
<rect y="0.177246" width="24" height="24" fill="#475569"/>
</g>
</svg>
