<svg width="32" height="33" viewBox="0 0 32 33" fill="none" xmlns="http://www.w3.org/2000/svg">
<circle cx="16" cy="16.1772" r="16" fill="#475569"/>
<rect x="13.0117" y="11.4288" width="5.17857" height="9.02572" fill="#D8DCDE"/>
<path d="M13.3422 15.9425C13.3403 14.181 14.1739 12.5165 15.6027 11.4289C13.1762 9.5794 9.69151 9.84879 7.5977 12.0477C5.50389 14.2466 5.50389 17.6368 7.5977 19.8357C9.69151 22.0347 13.1762 22.304 15.6027 20.4546C14.1744 19.3673 13.3408 17.7035 13.3422 15.9425Z" fill="white"/>
<path d="M25.1778 15.9425C25.1778 18.1401 23.8839 20.1448 21.8457 21.1051C19.8076 22.0654 17.3829 21.8128 15.6016 20.4546C17.0293 19.3664 17.8629 17.7028 17.8629 15.9417C17.8629 14.1807 17.0293 12.5171 15.6016 11.4289C17.3829 10.0706 19.8076 9.81806 21.8457 10.7784C23.8839 11.7387 25.1778 13.7434 25.1778 15.9409V15.9425Z" fill="#C6C9CA"/>
<path fill-rule="evenodd" clip-rule="evenodd" d="M24.7601 19.3786V19.8806H24.6831V19.3786H24.4961V19.2748H24.9325V19.3786H24.7601ZM25.6072 19.2748V19.8806L25.5302 19.885V19.4262L25.3872 19.8201H25.2882L25.1452 19.4262V19.8806H25.0498V19.2748H25.1672L25.3212 19.7075L25.4752 19.2748H25.6072Z" fill="#C6C9CA"/>
</svg>
