<svg width="32" height="33" viewBox="0 0 32 33" fill="none" xmlns="http://www.w3.org/2000/svg">
<circle cx="16" cy="16.1772" r="16" fill="#475569"/>
<path d="M15.7318 17.6164C15.9523 17.4056 16.2996 17.4056 16.5201 17.6164L19.5204 20.6187C20.0707 21.1701 20.8185 21.4788 21.5975 21.476L21.9651 21.4785L18.1555 25.2887C16.9683 26.4734 15.046 26.4734 13.8587 25.2887L10.0568 21.4868H10.6442C11.4236 21.4888 12.1714 21.1792 12.7213 20.6269L15.7318 17.6164ZM9.20519 11.7165C9.25451 11.7358 9.30684 11.7463 9.3598 11.7475H10.6448C11.1897 11.7491 11.7118 11.9656 12.0978 12.3501L15.1089 15.3594C15.6714 15.9208 16.5824 15.9208 17.1449 15.3594L20.1446 12.3615C20.5306 11.9773 21.0528 11.7609 21.5975 11.7596H22.6443C22.7004 11.759 22.7559 11.7478 22.8078 11.7266L25.1099 14.0287V14.028C25.6798 14.5978 26 15.3706 26 16.1764C26 16.9823 25.6798 17.7551 25.1099 18.3248L22.8078 20.6269C22.7559 20.6055 22.7004 20.5943 22.6443 20.594H21.5975C21.0528 20.5926 20.5306 20.3763 20.1446 19.992L17.1449 16.9929C16.6012 16.4492 15.6526 16.4492 15.1083 16.9929L12.0978 20.0034C11.7118 20.3878 11.1896 20.6044 10.6448 20.606H9.35473C9.30173 20.6068 9.24933 20.6173 9.20012 20.637L6.88856 18.3255C5.70381 17.1382 5.70381 15.2159 6.88856 14.0287L9.20519 11.7165ZM16.0008 6.17725C16.8066 6.17725 17.5795 6.49745 18.1492 7.06738L21.9587 10.8769H21.5975C20.8179 10.8744 20.0699 11.1843 19.5204 11.7374L16.5207 14.7371C16.3028 14.9543 15.9503 14.9543 15.7324 14.7371L12.722 11.726C12.1721 11.1736 11.4242 10.864 10.6448 10.8661H10.0568L13.8524 7.06738C14.4221 6.49745 15.1949 6.17725 16.0008 6.17725Z" fill="white"/>
</svg>
