<svg width="108" height="33" viewBox="0 0 108 33" fill="none" xmlns="http://www.w3.org/2000/svg">
<g clip-path="url(#clip0_1477_13778)">
<path fill-rule="evenodd" clip-rule="evenodd" d="M9.95176 23.3098C10.2771 23.3098 10.6355 23.2447 10.9278 23.1477L7.5763 31.5733C7.47923 31.8335 7.1219 31.8655 6.99176 31.6063L5.3971 28.8085C5.33203 28.7103 5.23496 28.6783 5.13683 28.7103L2.14376 29.6543C1.8835 29.7514 1.62323 29.4911 1.75336 29.2319L4.94163 21.2607C5.3651 21.4559 5.85256 21.5861 6.3411 21.5861C6.5363 21.5861 6.73043 21.5541 6.9267 21.521H6.99176L7.02376 21.5861C7.5763 22.6602 8.7155 23.3098 9.95176 23.3098Z" fill="#FFC000"/>
<path fill-rule="evenodd" clip-rule="evenodd" d="M22.1869 29.3286C22.285 29.5889 22.0567 29.8492 21.7965 29.751L18.8034 28.8092C18.7053 28.775 18.6093 28.8092 18.5431 28.9062L16.9495 31.7041C16.8194 31.9313 16.461 31.9313 16.3639 31.671L12.9805 23.2134C13.3058 23.3094 13.6311 23.3756 13.9565 23.3756C15.1917 23.3756 16.2978 22.7249 16.8834 21.6518L16.9175 21.5857H16.9815C17.1767 21.6177 17.3719 21.6518 17.5671 21.6518C18.0877 21.6518 18.5431 21.5217 18.9986 21.3254L22.1869 29.3286Z" fill="#FFC000"/>
<mask id="mask0_1477_13778" style="mask-type:luminance" maskUnits="userSpaceOnUse" x="0" y="1" width="24" height="24">
<path fill-rule="evenodd" clip-rule="evenodd" d="M23.4486 1.24365V24.6422H0V1.24365H23.4486Z" fill="white"/>
</mask>
<g mask="url(#mask0_1477_13778)">
<path fill-rule="evenodd" clip-rule="evenodd" d="M0.666322 15.4389L1.16979 15.76C1.71912 16.1259 1.94846 16.8128 1.76499 17.4539L1.58152 18.0491C1.30739 18.9205 1.90259 19.8357 2.81886 19.9733L3.41406 20.0651C4.05512 20.1568 4.55859 20.6603 4.69619 21.3013L4.78792 21.8965C4.92552 22.8128 5.84179 23.3621 6.75699 23.0869L7.35326 22.9045C7.99432 22.7211 8.68126 22.9504 9.04712 23.4997L9.41405 24.0032C9.96339 24.736 11.0173 24.8736 11.7031 24.2325L12.1618 23.8197C12.6663 23.3621 13.3522 23.2704 13.9485 23.5915L14.4967 23.8656C15.3223 24.3243 16.3293 23.9573 16.6503 23.0869L16.8797 22.5376C17.1079 21.9424 17.749 21.5307 18.3901 21.5765L18.9853 21.6224C19.9015 21.6672 20.6802 20.8885 20.5885 19.9733L20.5426 19.3771C20.4967 18.736 20.8637 18.0949 21.5047 17.8667L22.0541 17.6373C22.9245 17.2704 23.2445 16.2635 22.7869 15.4848L22.4658 14.9813C22.1458 14.432 22.2375 13.6992 22.6493 13.1947L23.0621 12.7371C23.6573 12.0501 23.5655 10.9963 22.7869 10.4469L22.2375 10.1269C21.6882 9.75999 21.4589 9.07305 21.6423 8.43199L21.8247 7.83679C22.0999 6.96639 21.5047 6.05012 20.5885 5.91252L19.9474 5.82079C19.3063 5.72905 18.8018 5.22559 18.6653 4.58452L18.5735 3.98932C18.4359 3.07305 17.5197 2.52372 16.6045 2.79892L16.0082 2.98132C15.3682 3.16479 14.6802 2.93545 14.3133 2.38612L13.9485 1.88265C13.3981 1.14985 12.3453 1.01225 11.6573 1.65332L11.1997 2.06612C10.6962 2.52372 10.0093 2.61545 9.41405 2.29439L8.86472 2.02025C8.04019 1.56159 7.03219 1.92852 6.71112 2.79892L6.48286 3.34825C6.25352 3.94345 5.61245 4.35519 4.97139 4.30932L4.37619 4.26345C3.45992 4.21865 2.68126 4.99625 2.77299 5.91252L2.81886 6.50772C2.86472 7.14985 2.49779 7.79092 1.85672 8.01919L1.30739 8.24852C0.436989 8.61545 0.116989 9.62239 0.574589 10.4011L0.894589 10.9056C1.21566 11.4549 1.12392 12.1877 0.712189 12.6912L0.299389 13.1488C-0.204078 13.8357 -0.0664781 14.8896 0.666322 15.4389Z" fill="#1ABC9C"/>
</g>
<path fill-rule="evenodd" clip-rule="evenodd" d="M11.7046 5.22583C15.9638 5.22583 19.4454 8.70636 19.4454 12.9656C19.4454 17.2248 15.9638 20.7053 11.7046 20.7053C7.44538 20.7053 3.96484 17.2248 3.96484 12.9656C3.96484 8.70636 7.44538 5.22583 11.7046 5.22583Z" fill="#0FA386"/>
<path fill-rule="evenodd" clip-rule="evenodd" d="M11.7031 18.9202C15.0013 18.9202 17.7031 16.2172 17.7031 12.9202C17.7031 9.6231 15.0013 6.92017 11.7031 6.92017C8.40606 6.92017 5.70312 9.6231 5.70312 12.9202C5.70312 16.2631 8.40606 18.9202 11.7031 18.9202Z" fill="#0A9378"/>
<path fill-rule="evenodd" clip-rule="evenodd" d="M9.4598 11.8208L10.7878 13.1488L13.9483 10.0352L15.3222 11.409L12.1617 14.5226L10.7878 15.8965L9.41394 14.5226L8.08594 13.1946L9.4598 11.8208Z" fill="white"/>
<path d="M34.0992 27.3772L33.0192 25.8172H32.9552H31.8272V27.3772H30.5312V21.7772H32.9552C33.4512 21.7772 33.8805 21.8599 34.2432 22.0252C34.6112 22.1905 34.8939 22.4252 35.0912 22.7292C35.2885 23.0332 35.3872 23.3932 35.3872 23.8092C35.3872 24.2252 35.2859 24.5852 35.0832 24.8892C34.8859 25.1879 34.6032 25.4172 34.2352 25.5772L35.4912 27.3772H34.0992ZM34.0752 23.8092C34.0752 23.4945 33.9739 23.2545 33.7712 23.0892C33.5685 22.9185 33.2725 22.8332 32.8832 22.8332H31.8272V24.7852H32.8832C33.2725 24.7852 33.5685 24.6999 33.7712 24.5292C33.9739 24.3585 34.0752 24.1185 34.0752 23.8092ZM41.75 26.3372V27.3772H37.414V21.7772H41.646V22.8172H38.702V24.0332H41.302V25.0412H38.702V26.3372H41.75ZM46.4456 27.4732C45.8749 27.4732 45.3576 27.3505 44.8936 27.1052C44.4349 26.8545 44.0722 26.5105 43.8056 26.0732C43.5442 25.6305 43.4136 25.1319 43.4136 24.5772C43.4136 24.0225 43.5442 23.5265 43.8056 23.0892C44.0722 22.6465 44.4349 22.3025 44.8936 22.0572C45.3576 21.8065 45.8776 21.6812 46.4536 21.6812C46.9389 21.6812 47.3762 21.7665 47.7656 21.9372C48.1602 22.1079 48.4909 22.3532 48.7576 22.6732L47.9256 23.4412C47.5469 23.0039 47.0776 22.7852 46.5176 22.7852C46.1709 22.7852 45.8616 22.8625 45.5896 23.0172C45.3176 23.1665 45.1042 23.3772 44.9496 23.6492C44.8002 23.9212 44.7256 24.2305 44.7256 24.5772C44.7256 24.9239 44.8002 25.2332 44.9496 25.5052C45.1042 25.7772 45.3176 25.9905 45.5896 26.1452C45.8616 26.2945 46.1709 26.3692 46.5176 26.3692C47.0776 26.3692 47.5469 26.1479 47.9256 25.7052L48.7576 26.4732C48.4909 26.7985 48.1602 27.0465 47.7656 27.2172C47.3709 27.3879 46.9309 27.4732 46.4456 27.4732ZM50.6328 21.7772H51.9288V26.3212H54.7368V27.3772H50.6328V21.7772ZM60.1958 26.1772H57.5958L57.0998 27.3772H55.7717L58.2678 21.7772H59.5478L62.0518 27.3772H60.6918L60.1958 26.1772ZM59.7878 25.1932L58.8998 23.0492L58.0118 25.1932H59.7878ZM68.7288 27.3772L68.7208 24.0172L67.0728 26.7852H66.4888L64.8488 24.0892V27.3772H63.6328V21.7772H64.7048L66.8008 25.2572L68.8648 21.7772H69.9288L69.9448 27.3772H68.7288ZM76.6094 26.3372V27.3772H72.2734V21.7772H76.5054V22.8172H73.5614V24.0332H76.1614V25.0412H73.5614V26.3372H76.6094ZM85.5942 26.1772H82.9942L82.4982 27.3772H81.1702L83.6662 21.7772H84.9462L87.4502 27.3772H86.0902L85.5942 26.1772ZM85.1862 25.1932L84.2982 23.0492L83.4102 25.1932H85.1862ZM95.0091 27.9772C94.8277 28.2012 94.6064 28.3719 94.3451 28.4892C94.0891 28.6065 93.8064 28.6652 93.4971 28.6652C93.0811 28.6652 92.7051 28.5745 92.3691 28.3932C92.0331 28.2172 91.6491 27.9025 91.2171 27.4492C90.7104 27.3852 90.2571 27.2225 89.8571 26.9612C89.4624 26.6999 89.1531 26.3639 88.9291 25.9532C88.7104 25.5372 88.6011 25.0785 88.6011 24.5772C88.6011 24.0279 88.7317 23.5345 88.9931 23.0972C89.2597 22.6545 89.6251 22.3079 90.0891 22.0572C90.5584 21.8065 91.0837 21.6812 91.6651 21.6812C92.2464 21.6812 92.7691 21.8065 93.2331 22.0572C93.6971 22.3079 94.0624 22.6545 94.3291 23.0972C94.5957 23.5345 94.7291 24.0279 94.7291 24.5772C94.7291 25.2279 94.5451 25.7985 94.1771 26.2892C93.8144 26.7799 93.3317 27.1212 92.7291 27.3132C92.8624 27.4519 92.9904 27.5505 93.1131 27.6092C93.2411 27.6732 93.3771 27.7052 93.5211 27.7052C93.8677 27.7052 94.1717 27.5665 94.4331 27.2892L95.0091 27.9772ZM89.9131 24.5772C89.9131 24.9239 89.9877 25.2332 90.1371 25.5052C90.2917 25.7772 90.5024 25.9905 90.7691 26.1452C91.0357 26.2945 91.3344 26.3692 91.6651 26.3692C91.9957 26.3692 92.2944 26.2945 92.5611 26.1452C92.8277 25.9905 93.0357 25.7772 93.1851 25.5052C93.3397 25.2332 93.4171 24.9239 93.4171 24.5772C93.4171 24.2305 93.3397 23.9212 93.1851 23.6492C93.0357 23.3772 92.8277 23.1665 92.5611 23.0172C92.2944 22.8625 91.9957 22.7852 91.6651 22.7852C91.3344 22.7852 91.0357 22.8625 90.7691 23.0172C90.5024 23.1665 90.2917 23.3772 90.1371 23.6492C89.9877 23.9212 89.9131 24.2305 89.9131 24.5772ZM99.1911 27.4732C98.3911 27.4732 97.7671 27.2519 97.3191 26.8092C96.8764 26.3665 96.6551 25.7345 96.6551 24.9132V21.7772H97.9511V24.8652C97.9511 25.8679 98.3671 26.3692 99.1991 26.3692C99.6044 26.3692 99.9137 26.2492 100.127 26.0092C100.34 25.7639 100.447 25.3825 100.447 24.8652V21.7772H101.727V24.9132C101.727 25.7345 101.503 26.3665 101.055 26.8092C100.612 27.2519 99.9911 27.4732 99.1911 27.4732ZM104.008 21.7772H105.304V27.3772H104.008V21.7772Z" fill="#879395"/>
<path d="M37.829 18.2439L35.525 14.9159H35.3885H32.9821V18.2439H30.2173V6.29723H35.3885C36.4466 6.29723 37.3626 6.47358 38.1362 6.8263C38.9213 7.17901 39.5243 7.67963 39.9453 8.32816C40.3663 8.9767 40.5768 9.7447 40.5768 10.6322C40.5768 11.5196 40.3606 12.2876 39.9282 12.9362C39.5073 13.5733 38.9042 14.0626 38.1192 14.4039L40.7986 18.2439H37.829ZM37.7778 10.6322C37.7778 9.96087 37.5617 9.44887 37.1293 9.09616C36.697 8.73207 36.0655 8.55003 35.2349 8.55003H32.9821V12.7143H35.2349C36.0655 12.7143 36.697 12.5323 37.1293 12.1682C37.5617 11.8041 37.7778 11.2921 37.7778 10.6322ZM50.635 15.6839H45.0884L44.0302 18.2439H41.1972L46.522 6.29723H49.2526L54.5945 18.2439H51.6932L50.635 15.6839ZM49.7646 13.5847L47.8702 9.01083L45.9758 13.5847H49.7646ZM58.9577 6.29723V18.2439H56.1929V8.5159H53.8036V6.29723H58.9577ZM66.153 18.4487C65.1632 18.4487 64.2814 18.2041 63.5077 17.7148C62.734 17.2256 62.1253 16.5202 61.6816 15.5986C61.2492 14.6656 61.033 13.5563 61.033 12.2706C61.033 10.9849 61.2492 9.88123 61.6816 8.95963C62.1253 8.02665 62.734 7.31554 63.5077 6.8263C64.2814 6.33705 65.1632 6.09243 66.153 6.09243C67.1429 6.09243 68.0247 6.33705 68.7984 6.8263C69.5721 7.31554 70.1751 8.02665 70.6074 8.95963C71.0512 9.88123 71.2731 10.9849 71.2731 12.2706C71.2731 13.5563 71.0512 14.6656 70.6074 15.5986C70.1751 16.5202 69.5721 17.2256 68.7984 17.7148C68.0247 18.2041 67.1429 18.4487 66.153 18.4487ZM66.153 16.1106C66.8812 16.1106 67.4501 15.7977 67.8597 15.1719C68.2807 14.5461 68.4912 13.579 68.4912 12.2706C68.4912 10.9621 68.2807 9.99501 67.8597 9.36923C67.4501 8.74345 66.8812 8.43056 66.153 8.43056C65.4362 8.43056 64.8674 8.74345 64.4464 9.36923C64.0368 9.99501 63.832 10.9621 63.832 12.2706C63.832 13.579 64.0368 14.5461 64.4464 15.1719C64.8674 15.7977 65.4362 16.1106 66.153 16.1106ZM77.7364 18.4487C76.7465 18.4487 75.8647 18.2041 75.091 17.7148C74.3174 17.2256 73.7086 16.5202 73.2649 15.5986C72.8326 14.6656 72.6164 13.5563 72.6164 12.2706C72.6164 10.9849 72.8326 9.88123 73.2649 8.95963C73.7086 8.02665 74.3174 7.31554 75.091 6.8263C75.8647 6.33705 76.7465 6.09243 77.7364 6.09243C78.7263 6.09243 79.608 6.33705 80.3817 6.8263C81.1554 7.31554 81.7584 8.02665 82.1908 8.95963C82.6345 9.88123 82.8564 10.9849 82.8564 12.2706C82.8564 13.5563 82.6345 14.6656 82.1908 15.5986C81.7584 16.5202 81.1554 17.2256 80.3817 17.7148C79.608 18.2041 78.7263 18.4487 77.7364 18.4487ZM77.7364 16.1106C78.4646 16.1106 79.0335 15.7977 79.4431 15.1719C79.864 14.5461 80.0745 13.579 80.0745 12.2706C80.0745 10.9621 79.864 9.99501 79.4431 9.36923C79.0335 8.74345 78.4646 8.43056 77.7364 8.43056C77.0196 8.43056 76.4507 8.74345 76.0297 9.36923C75.6201 9.99501 75.4153 10.9621 75.4153 12.2706C75.4153 13.579 75.6201 14.5461 76.0297 15.1719C76.4507 15.7977 77.0196 16.1106 77.7364 16.1106ZM89.3197 18.4487C88.3299 18.4487 87.4481 18.2041 86.6744 17.7148C85.9007 17.2256 85.292 16.5202 84.8483 15.5986C84.4159 14.6656 84.1997 13.5563 84.1997 12.2706C84.1997 10.9849 84.4159 9.88123 84.8483 8.95963C85.292 8.02665 85.9007 7.31554 86.6744 6.8263C87.4481 6.33705 88.3299 6.09243 89.3197 6.09243C90.3096 6.09243 91.1914 6.33705 91.9651 6.8263C92.7387 7.31554 93.3418 8.02665 93.7741 8.95963C94.2179 9.88123 94.4397 10.9849 94.4397 12.2706C94.4397 13.5563 94.2179 14.6656 93.7741 15.5986C93.3418 16.5202 92.7387 17.2256 91.9651 17.7148C91.1914 18.2041 90.3096 18.4487 89.3197 18.4487ZM89.3197 16.1106C90.0479 16.1106 90.6168 15.7977 91.0264 15.1719C91.4474 14.5461 91.6579 13.579 91.6579 12.2706C91.6579 10.9621 91.4474 9.99501 91.0264 9.36923C90.6168 8.74345 90.0479 8.43056 89.3197 8.43056C88.6029 8.43056 88.034 8.74345 87.6131 9.36923C87.2035 9.99501 86.9987 10.9621 86.9987 12.2706C86.9987 13.579 87.2035 14.5461 87.6131 15.1719C88.034 15.7977 88.6029 16.1106 89.3197 16.1106Z" fill="#1ABC9C"/>
</g>
<defs>
<clipPath id="clip0_1477_13778">
<rect width="108" height="32" fill="white" transform="translate(0 0.177246)"/>
</clipPath>
</defs>
</svg>
