<svg width="32" height="33" viewBox="0 0 32 33" fill="none" xmlns="http://www.w3.org/2000/svg">
<g clip-path="url(#clip0_1199_15742)">
<circle cx="16" cy="16.1772" r="16" fill="#475569"/>
<mask id="mask0_1199_15742" style="mask-type:luminance" maskUnits="userSpaceOnUse" x="0" y="0" width="32" height="33">
<circle cx="16" cy="16.1772" r="16" fill="white"/>
</mask>
<g mask="url(#mask0_1199_15742)">
</g>
<path fill-rule="evenodd" clip-rule="evenodd" d="M16.3428 8.34668C16.2842 8.8468 16.3087 9.38297 16.4577 9.81599C16.6584 10.3991 16.936 10.8194 17.9582 12.103C19.0368 13.4573 19.382 13.9482 19.6387 14.6505C19.8485 15.2247 19.8529 15.5564 19.7629 16.0776C20.7079 16.2513 22.2568 16.7356 23.2949 17.3365C24.2579 17.9081 24.958 18.6493 25.2145 19.3683C25.3661 19.7937 25.3599 20.453 25.199 20.8654C25.0444 21.2614 24.8324 21.592 24.5197 21.9227C23.2768 23.2368 20.8158 24.1806 17.8513 24.4811C17.1955 24.5475 15.5885 24.5948 15.0374 24.5639C11.0773 24.3415 7.89287 23.0209 6.98666 21.2264C6.60974 20.4801 6.61896 19.8376 7.01618 19.0995C7.34369 18.491 8.24144 17.7389 9.29714 17.1872C10.3127 16.7153 11.2662 16.3627 12.2882 16.0851C12.3379 16.729 13.6381 18.2682 14.0685 18.8132C15.0071 19.9989 15.3783 20.5644 15.6435 21.0174C15.8028 21.2894 15.8928 21.4632 15.8478 21.981C15.8478 21.981 16.209 21.6655 16.3453 21.3974C16.5216 21.0506 16.5845 20.6986 16.5506 20.2465C16.5098 19.7018 16.4139 19.368 16.1442 18.8349C15.882 18.3165 15.5061 17.7922 14.7914 16.9456C13.7822 15.7502 13.4085 15.0935 13.2543 14.2406C13.0832 13.2939 13.3589 12.2877 13.9237 11.7975C14.0466 11.6909 14.2443 11.5872 14.2443 11.5872C14.2443 11.5872 14.2275 11.8311 14.2275 12.1083C14.2275 12.6947 14.2968 12.9999 14.5298 13.4466C14.8193 14.0012 15.2198 14.5198 16.448 15.9304C17.5349 17.1788 17.8725 17.8131 17.8725 18.6056C17.8725 18.7916 17.8729 18.9876 17.8729 18.9876C17.8729 18.9876 18.16 18.7762 18.293 18.5825C18.7143 17.9686 18.7811 17.0108 18.4603 16.1625C18.2404 15.5809 17.8841 15.0517 16.8304 13.7737C15.758 12.4727 15.3079 11.4304 15.3079 10.5617C15.3079 9.69308 15.5032 8.86439 16.3429 8.34668H16.3428Z" fill="white"/>
</g>
<defs>
<clipPath id="clip0_1199_15742">
<rect width="32" height="32" fill="white" transform="translate(0 0.177246)"/>
</clipPath>
</defs>
</svg>
