<svg width="24" height="25" viewBox="0 0 24 25" fill="none" xmlns="http://www.w3.org/2000/svg">
<path fill-rule="evenodd" clip-rule="evenodd" d="M19.999 7.78674C19.3351 8.03439 18.6707 8.28204 18.0068 8.28204C18.6707 7.9108 19.3351 7.29144 19.6008 6.4249C18.9369 6.79614 18.1399 7.04379 17.3429 7.16785C16.679 6.54896 15.749 6.17725 14.8194 6.17725C12.8273 6.30084 11.2338 7.78674 11.2338 9.52029C11.2338 9.76794 11.2338 10.0156 11.3664 10.2632C8.4447 10.1397 5.92122 8.9014 4.1947 6.9202C3.92904 7.4155 3.66339 7.9108 3.66339 8.52969C3.66339 9.64388 4.32728 10.6345 5.25733 11.2534C4.72601 11.2534 4.1947 11.1298 3.66339 10.8821V10.8821C3.66339 12.4916 4.85859 13.7299 6.45253 14.1011C6.18687 14.1011 5.92122 14.2247 5.52298 14.2247C5.25733 14.2247 5.12475 14.2247 4.85909 14.2247C5.39041 15.463 6.58561 16.3295 8.17955 16.3295C6.98434 17.196 5.52348 17.6913 3.79697 17.6913C3.53131 17.6913 3.26566 17.6913 3 17.6913C4.59394 18.5579 6.32045 19.1772 8.31263 19.1772C14.6874 19.1772 18.2735 14.2252 18.2735 9.89153V9.52029C18.9374 9.02499 19.4687 8.52969 20 7.78721V7.78721L19.999 7.78674Z" fill="#909090"/>
<mask id="mask0_2073_78022" style="mask-type:luminance" maskUnits="userSpaceOnUse" x="3" y="6" width="17" height="14">
<path fill-rule="evenodd" clip-rule="evenodd" d="M19.999 7.78674C19.3351 8.03439 18.6707 8.28204 18.0068 8.28204C18.6707 7.9108 19.3351 7.29144 19.6008 6.4249C18.9369 6.79614 18.1399 7.04379 17.3429 7.16785C16.679 6.54896 15.749 6.17725 14.8194 6.17725C12.8273 6.30084 11.2338 7.78674 11.2338 9.52029C11.2338 9.76794 11.2338 10.0156 11.3664 10.2632C8.4447 10.1397 5.92122 8.9014 4.1947 6.9202C3.92904 7.4155 3.66339 7.9108 3.66339 8.52969C3.66339 9.64388 4.32728 10.6345 5.25733 11.2534C4.72601 11.2534 4.1947 11.1298 3.66339 10.8821C3.66339 12.4916 4.85859 13.7299 6.45253 14.1011C6.18687 14.1011 5.92122 14.2247 5.52298 14.2247C5.25733 14.2247 5.12475 14.2247 4.85909 14.2247C5.39041 15.463 6.58561 16.3295 8.17955 16.3295C6.98434 17.196 5.52348 17.6913 3.79697 17.6913C3.53131 17.6913 3.26566 17.6913 3 17.6913C4.59394 18.5579 6.32045 19.1772 8.31263 19.1772C14.6874 19.1772 18.2735 14.2252 18.2735 9.89153V9.52029C18.9374 9.02499 19.4687 8.52969 20 7.78721L19.999 7.78674Z" fill="white"/>
</mask>
<g mask="url(#mask0_2073_78022)">
<rect y="0.177246" width="24" height="24" fill="#475569"/>
</g>
</svg>
