<svg width="32" height="33" viewBox="0 0 32 33" fill="none" xmlns="http://www.w3.org/2000/svg">
<circle cx="16" cy="16.1772" r="16" fill="#475569"/>
<mask id="mask0_1199_15718" style="mask-type:luminance" maskUnits="userSpaceOnUse" x="4" y="12" width="25" height="9">
<path fill-rule="evenodd" clip-rule="evenodd" d="M4.83203 12.2092H28.2844V20.1926H4.83203V12.2092Z" fill="white"/>
</mask>
<g mask="url(#mask0_1199_15718)">
<path fill-rule="evenodd" clip-rule="evenodd" d="M15.9237 14.7613C15.9365 13.2595 17.3773 12.2093 19.4285 12.2092C20.2306 12.2092 20.8771 12.3788 21.287 12.5347L21.0048 14.2115L20.8199 14.1225C20.4354 13.9644 19.947 13.8143 19.268 13.8253C18.455 13.8253 18.0805 14.1693 18.0799 14.4903C18.0733 14.8536 18.5203 15.0912 19.2432 15.4497C20.4407 16.0011 20.9945 16.6689 20.986 17.5513C20.9692 19.1545 19.5528 20.1927 17.3761 20.1927C16.4451 20.1828 15.5494 19.9963 15.0645 19.7808L15.3546 18.05L15.624 18.1733C16.3032 18.461 16.7451 18.5775 17.574 18.5775C18.1685 18.5775 18.8083 18.3413 18.8164 17.823C18.819 17.4849 18.5486 17.2419 17.739 16.8639C16.9542 16.4942 15.9108 15.8738 15.9237 14.7613ZM12.9892 12.3441L11.6918 20.0783H13.7646L15.0628 12.344H12.9894L12.9892 12.3441ZM7.92254 17.6227L9.95234 12.3516V12.3517H12.1478L8.88376 20.0699L6.68879 20.0709L4.83203 13.3022C6.1063 13.8606 7.20067 15.2383 7.70616 16.5516L7.92254 17.6227ZM25.0033 12.3521C24.5067 12.3521 24.1345 12.4884 23.9153 12.994L20.8372 20.0808H23.015C23.015 20.0808 23.3711 19.1269 23.4517 18.9181C23.5634 18.9181 24.0901 18.919 24.6483 18.9201L24.6487 18.9201C25.2777 18.9212 25.9464 18.9225 26.1063 18.9225C26.1705 19.1921 26.3588 20.0807 26.3588 20.0807H28.2844L26.6054 12.3521H25.0034H25.0033ZM25.1498 14.4372L25.2881 15.104C25.2881 15.104 25.6865 16.9494 25.7696 17.3359H24.0482C24.2204 16.892 24.8743 15.174 24.8743 15.174C24.8679 15.1846 24.9107 15.072 24.9683 14.9206L24.9684 14.9203C25.0256 14.7699 25.0973 14.5814 25.1498 14.4372Z" fill="white"/>
</g>
<path fill-rule="evenodd" clip-rule="evenodd" d="M6.27514 12.6226H3.01897L3 12.7494C5.53162 13.3596 7.20182 14.8582 7.89726 16.6302L7.18962 13.2433C7.06799 12.7775 6.71368 12.6389 6.27514 12.6226Z" fill="#D8DCDE"/>
</svg>
