<svg width="24" height="25" viewBox="0 0 24 25" fill="none" xmlns="http://www.w3.org/2000/svg">
<path fill-rule="evenodd" clip-rule="evenodd" d="M7.3233 6.17725H16.6767C18.5119 6.17725 20 7.75429 20 9.69909V14.6554C20 16.6002 18.5119 18.1772 16.6767 18.1772H7.3233C5.48814 18.1772 4 16.6002 4 14.6554V9.69909C4 7.75429 5.48814 6.17725 7.3233 6.17725ZM10.0569 14.6279L14.4298 12.4164C14.5597 12.3519 14.5643 12.1542 14.434 12.0852L10.0611 9.73607C9.94402 9.67197 9.80521 9.7636 9.80521 9.90167V14.4578C9.80521 14.5958 9.93975 14.6875 10.0569 14.6279Z" fill="#909090"/>
<mask id="mask0_2073_77997" style="mask-type:luminance" maskUnits="userSpaceOnUse" x="4" y="6" width="16" height="13">
<path fill-rule="evenodd" clip-rule="evenodd" d="M7.3233 6.17725H16.6767C18.5119 6.17725 20 7.75429 20 9.69909V14.6554C20 16.6002 18.5119 18.1772 16.6767 18.1772H7.3233C5.48814 18.1772 4 16.6002 4 14.6554V9.69909C4 7.75429 5.48814 6.17725 7.3233 6.17725ZM10.0569 14.6279L14.4298 12.4164C14.5597 12.3519 14.5643 12.1542 14.434 12.0852L10.0611 9.73607C9.94402 9.67197 9.80521 9.7636 9.80521 9.90167V14.4578C9.80521 14.5958 9.93975 14.6875 10.0569 14.6279Z" fill="white"/>
</mask>
<g mask="url(#mask0_2073_77997)">
<rect y="0.177246" width="24" height="24" fill="#475569"/>
</g>
</svg>
